<?xml version="1.0" encoding="UTF-8"?>
<svg version="1.1" xmlns="http://www.w3.org/2000/svg" width="263" height="192">
<path d="M0 0 C26.36436254 4.61680081 51.18509839 14.50688007 67 37 C73.84921992 47.66132398 75.86258877 61.19951445 73.26171875 73.48828125 C68.59854549 89.27524237 59.47560071 103.42206114 48.39550781 115.46411133 C46.81300267 117.2058083 45.28420387 118.98907243 43.75 120.7734375 C39.60580434 125.51745096 35.20522756 129.98673436 30.75 134.4375 C29.48820923 135.69808228 29.48820923 135.69808228 28.20092773 136.98413086 C23.16476162 141.97078479 18.10738937 146.69735657 12.5078125 151.046875 C9.73069463 153.20973938 7.09761521 155.50755003 4.4375 157.8125 C-18.73437496 177.20866866 -18.73437496 177.20866866 -28.47154236 177.2784729 C-29.36171555 177.28963638 -30.25188873 177.30079987 -31.16903687 177.31230164 C-32.13797882 177.31446182 -33.10692078 177.31662201 -34.10522461 177.31884766 C-35.64487129 177.33391609 -35.64487129 177.33391609 -37.21562195 177.34928894 C-40.61119021 177.38019547 -44.00667915 177.39718207 -47.40234375 177.4140625 C-49.76120176 177.43277485 -52.12005308 177.45234831 -54.47889709 177.4727478 C-60.69282058 177.52414238 -66.90676593 177.5637172 -73.12078857 177.60089111 C-79.4393055 177.64080307 -85.75772964 177.69200889 -92.07617188 177.7421875 C-101.30587281 177.81402918 -110.53558662 177.88122431 -119.76538086 177.93994141 C-120.73229858 177.94615005 -121.69921631 177.9523587 -122.69543457 177.95875549 C-123.58842758 177.96427933 -124.48142059 177.96980316 -125.401474 177.97549438 C-126.55928832 177.98265944 -126.55928832 177.98265944 -127.74049282 177.98996925 C-130.1603562 178.00071188 -132.58011595 178.00167509 -135 178 C-134 175 -134 175 -131.63012695 173.5612793 C-130.59331787 173.07054932 -129.55650879 172.57981934 -128.48828125 172.07421875 C-126.77282104 171.25473755 -126.77282104 171.25473755 -125.02270508 170.41870117 C-123.78614089 169.84126812 -122.54940251 169.26420799 -121.3125 168.6875 C-120.06049434 168.09478318 -118.80878525 167.50143949 -117.55737305 166.9074707 C-110.48385035 163.56346897 -103.36617815 160.3769491 -96.14453125 157.3671875 C-90.40551317 154.87196225 -84.86049434 151.99090827 -79.28564453 149.15234375 C-76.83348448 147.91604857 -74.36947346 146.70613181 -71.90234375 145.5 C-54.35470564 136.89286287 -37.12876725 127.6348245 -20.78173828 116.89428711 C-16.31189526 114 -16.31189526 114 -13 114 C-13 113.34 -13 112.68 -13 112 C-10.98046875 110.5546875 -10.98046875 110.5546875 -8.1875 108.875 C3.09103182 101.87652641 13.24054046 93.96599953 22.5 84.4375 C25 82 25 82 27 82 C27.23847656 81.47921875 27.47695312 80.9584375 27.72265625 80.421875 C29.07236179 77.86280027 30.62260153 75.48320879 32.22460938 73.07617188 C38.52075751 63.59646414 43.67207589 53.84387086 42 42 C37.64161878 26.10080321 25.61987173 16.88742377 12 9 C8.07563185 6.84196117 4.07164478 4.86522275 0 3 C0 2.01 0 1.02 0 0 Z M48 76 C46.30271135 77.8732865 46.30271135 77.8732865 44.9375 80.3125 C42.23030411 84.77183328 42.23030411 84.77183328 40.31640625 86.66796875 C38.76569239 87.92496192 38.76569239 87.92496192 39 90 C40.98 90.99 40.98 90.99 43 92 C45.86054142 89.30291809 48.47543296 86.55626501 50.875 83.4375 C51.30554688 82.87933594 51.73609375 82.32117188 52.1796875 81.74609375 C53.24857916 79.47088151 52.82144584 78.31728857 52 76 C50.68 76 49.36 76 48 76 Z M13.25 116.1875 C9.3352479 119.82672703 5.4279125 123.01597201 1 126 C1.66 127.32 2.32 128.64 3 130 C11.16153206 126.70399667 16.76488816 121.02727478 23 115 C22.34 114.67 21.68 114.34 21 114 C21 113.34 21 112.68 21 112 C16.96669233 112 16.13246261 113.44378947 13.25 116.1875 Z M-28 142 C-41.05963023 150.40916956 -41.05963023 150.40916956 -54 159 C-52.35 160.65 -50.7 162.3 -49 164 C-45.39549683 161.70886229 -41.7914555 159.41699908 -38.1875 157.125 C-36.65125977 156.14853516 -36.65125977 156.14853516 -35.08398438 155.15234375 C-34.10107422 154.52714844 -33.11816406 153.90195313 -32.10546875 153.2578125 C-31.19949951 152.6817627 -30.29353027 152.10571289 -29.36010742 151.51220703 C-27.56153228 150.35979425 -25.77734352 149.18489568 -24 148 C-24.27617533 146.05925139 -24.27617533 146.05925139 -25 144 C-25.99 143.34 -26.98 142.68 -28 142 Z " fill="#FCDE39" transform="translate(141,14)"/>
<path d="M0 0 C8.38077994 -0.06996543 16.76143485 -0.12304474 25.14243603 -0.15543652 C29.03541171 -0.1709945 32.92818543 -0.1920486 36.82104492 -0.22631836 C40.58824417 -0.25926877 44.35525099 -0.27692688 48.12258339 -0.28463173 C49.54927913 -0.29011204 50.97596611 -0.30081056 52.40257835 -0.31719017 C64.48070849 -0.45016269 75.75810665 0.79107373 86.5625 6.5 C88.26599609 7.38171875 88.26599609 7.38171875 90.00390625 8.28125 C92.51971894 9.72448023 94.82426934 11.08493145 97 13 C97 13.66 97 14.32 97 15 C97.5775 15.226875 98.155 15.45375 98.75 15.6875 C101.59739809 17.34848222 103.12067193 19.31524561 105 22 C105 22.66 105 23.32 105 24 C105.66 24 106.32 24 107 24 C114.75868994 39.56759794 118.83767705 53.95896716 113.97265625 71.15625 C109.03064535 85.60518146 99.47312607 96.88212208 86 104 C85.21595291 104.49671204 84.43190582 104.99342407 83.62409973 105.50518799 C74.23942437 110.85114542 63.24207017 110.42099006 52.76953125 110.328125 C51.24208259 110.32505974 49.71463112 110.32318946 48.18717957 110.32244873 C45.01456709 110.31788468 41.84221401 110.3035982 38.66967773 110.28125 C34.59635972 110.2527035 30.52324248 110.24200773 26.44983387 110.2375679 C23.30925994 110.23342521 20.1687267 110.22362174 17.02817345 110.21169281 C15.52460746 110.20598926 14.02103758 110.20123084 12.51746559 110.19742584 C10.43059907 110.19059038 8.34389513 110.1769783 6.25708008 110.16113281 C5.06971756 110.15430481 3.88235504 110.14747681 2.65901184 110.14044189 C0 110 0 110 -1 109 C-1.09753399 107.62806543 -1.12631614 106.25115994 -1.12698364 104.87576294 C-1.12980347 103.98682343 -1.13262329 103.09788391 -1.13552856 102.18200684 C-1.13350433 101.19913696 -1.1314801 100.21626709 -1.12939453 99.20361328 C-1.13202301 97.65980484 -1.13202301 97.65980484 -1.13470459 96.08480835 C-1.13912614 92.66329286 -1.13618362 89.24182857 -1.1328125 85.8203125 C-1.13348556 83.4523823 -1.13445559 81.08445218 -1.13571167 78.71652222 C-1.13718914 73.74476465 -1.1350329 68.77302502 -1.13037109 63.80126953 C-1.12467999 57.41970959 -1.12794859 51.03819176 -1.13394356 44.65663338 C-1.13755314 39.76341432 -1.13640864 34.87020528 -1.13381577 29.97698593 C-1.13314728 27.62378815 -1.13397221 25.27058946 -1.13629532 22.91739273 C-1.13882764 19.62996251 -1.13497269 16.34260088 -1.12939453 13.05517578 C-1.13141876 12.07635437 -1.13344299 11.09753296 -1.13552856 10.08905029 C-1.13270874 9.19447113 -1.12988892 8.29989197 -1.12698364 7.37820435 C-1.12660662 6.60058809 -1.12622959 5.82297184 -1.12584114 5.02179146 C-1 3 -1 3 0 0 Z M7 8 C6.92755947 10.01964199 6.91622812 12.04167124 6.9375 14.0625 C6.94652344 15.16722656 6.95554687 16.27195312 6.96484375 17.41015625 C6.97644531 18.26480469 6.98804688 19.11945312 7 20 C7.87140625 20.01417969 8.7428125 20.02835938 9.640625 20.04296875 C21.9559933 20.53611662 30.8139013 24.78915035 41.5 30.4375 C42.60637817 31.02059937 42.60637817 31.02059937 43.73510742 31.61547852 C46.86906963 33.2802543 49.93575149 34.95978077 52.9453125 36.84375 C61.32429126 41.82716594 69.82312636 41.97078841 79.328125 42.57421875 C88.49726472 43.17906347 97.31410297 44.96973217 106 48 C106 48.66 106 49.32 106 50 C106.66 50 107.32 50 108 50 C108.56155676 38.51361182 101.83609743 29.52540028 94.51171875 21.3359375 C93.09291868 19.79668882 93.09291868 19.79668882 91 18 C90.34 18 89.68 18 89 18 C89 17.34 89 16.68 89 16 C86.48521169 14.67467939 83.96418013 13.36479769 81.4375 12.0625 C80.73302734 11.68931641 80.02855469 11.31613281 79.30273438 10.93164062 C78.60341797 10.57392578 77.90410156 10.21621094 77.18359375 9.84765625 C76.54993896 9.51773682 75.91628418 9.18781738 75.26342773 8.84790039 C68.11339207 6.16943271 60.17146139 6.85482655 52.6640625 6.8671875 C51.3889682 6.86623077 50.1138739 6.86527405 48.80014038 6.86428833 C46.11558588 6.86360968 43.43112332 6.86493583 40.74658203 6.86962891 C37.29977101 6.87536029 33.85303729 6.87201955 30.40622902 6.86605644 C27.11717067 6.8615885 23.82812185 6.8647085 20.5390625 6.8671875 C19.29750397 6.86516327 18.05594543 6.86313904 16.77676392 6.86105347 C15.63822968 6.86420563 14.49969543 6.86735779 13.32666016 6.87060547 C11.81611557 6.87179886 11.81611557 6.87179886 10.27505493 6.87301636 C8.03319915 6.74460031 8.03319915 6.74460031 7 8 Z M7 27 C7 31.62 7 36.24 7 41 C12.88400655 41.85695967 18.55909292 42.12539234 24.5 42.0625 C25.32242188 42.05798828 26.14484375 42.05347656 26.9921875 42.04882812 C28.99482396 42.03718489 30.99742227 42.01925556 33 42 C33.66 39.69 34.32 37.38 35 35 C32.9195946 33.84856175 30.83598003 32.70375888 28.75 31.5625 C28.16347656 31.23701172 27.57695313 30.91152344 26.97265625 30.57617188 C21.72640819 27.71726142 18.18205004 26.86688036 12.25 26.9375 C9.65125 26.9684375 9.65125 26.9684375 7 27 Z M95.125 54.375 C93.81026334 55.94466014 93.81026334 55.94466014 94 58 C97.96 58 101.92 58 106 58 C105.67 56.68 105.34 55.36 105 54 C101.63400958 52.31700479 98.21390884 52.10980019 95.125 54.375 Z M62.0625 66.125 C60.51540788 70.31124926 60.64853743 73.75364317 62 78 C64.73729811 81.43916942 66.18245326 82.64868506 70.4453125 83.47265625 C75.10692272 83.74400371 77.29460801 83.54703869 81.0625 80.625 C84.10961589 76.49664944 84.34995136 74.16178257 84 69 C82.55408366 65.46553783 81.36868181 64.23242984 78.125 62.1875 C71.74673191 59.76375813 66.75767473 60.97545352 62.0625 66.125 Z M88.18359375 80.67578125 C87.26281262 82.11073076 86.36059436 83.55774789 85.4765625 85.015625 C83.26201176 87.99179372 80.88219864 88.75276332 77.3671875 89.6640625 C71.86047877 90.44554262 67.60930919 89.85020108 62.6875 87.25 C60 85 60 85 58.52636719 82.38989258 C54.49441542 78.57574725 50.2319398 79.38058844 44.890625 79.51171875 C43.26770538 79.52233086 43.26770538 79.52233086 41.61199951 79.53315735 C38.15729551 79.56113956 34.70421389 79.62388869 31.25 79.6875 C28.90757549 79.71257776 26.56512558 79.73539183 24.22265625 79.75585938 C18.48121756 79.81097872 12.74072468 79.89464412 7 80 C6.97112488 83.64581687 6.95324415 87.29160463 6.9375 90.9375 C6.92912109 91.97841797 6.92074219 93.01933594 6.91210938 94.09179688 C6.90888672 95.08115234 6.90566406 96.07050781 6.90234375 97.08984375 C6.89710693 98.00628662 6.89187012 98.92272949 6.88647461 99.86694336 C6.76078789 101.98363023 6.76078789 101.98363023 8 103 C9.74650426 103.10943221 11.49742662 103.14908759 13.24731445 103.16113281 C14.93090813 103.17554413 14.93090813 103.17554413 16.64851379 103.19024658 C17.87438705 103.19449646 19.10026031 103.19874634 20.36328125 103.203125 C21.62077682 103.20882507 22.8782724 103.21452515 24.1738739 103.22039795 C26.84813045 103.22987214 29.5222742 103.23675484 32.1965332 103.24023438 C35.59101952 103.24566732 38.98509406 103.26957254 42.37945271 103.29820633 C45.64486347 103.32157289 48.91029868 103.3233011 52.17578125 103.328125 C53.98119133 103.3466452 53.98119133 103.3466452 55.82307434 103.36553955 C67.25434965 103.33589018 77.39972024 101.4001865 87 95 C87.7734375 94.484375 88.546875 93.96875 89.34375 93.4375 C94.9466457 89.40341509 98.55440514 84.95885229 102 79 C94.59502739 77.85304923 94.59502739 77.85304923 88.18359375 80.67578125 Z " fill="#363433" transform="translate(7,32)"/>
<path d="M0 0 C5.78837066 1.5743614 10.54426913 4.47297611 15.625 7.5625 C16.51727295 8.10479248 17.4095459 8.64708496 18.32885742 9.20581055 C35.77040131 19.92458169 51.30766124 32.6683173 61 51 C61.51175781 51.88429687 62.02351563 52.76859375 62.55078125 53.6796875 C68.05933619 63.64163756 67.2629417 74.85795646 67.35009766 85.99389648 C67.36664318 87.5344149 67.39391544 89.07485697 67.43212891 90.61499023 C67.69009398 101.13211424 66.73085579 109.35871404 62 119 C61.42636719 120.16917969 60.85273438 121.33835937 60.26171875 122.54296875 C56.32449627 129.15711172 52.01902595 135.164796 47 141 C46.30003906 141.82242188 45.60007812 142.64484375 44.87890625 143.4921875 C43.44205481 145.13649878 41.96911216 146.7501011 40.45874023 148.32714844 C37.98251557 150.90391064 37.98251557 150.90391064 36.12695312 153.65380859 C32.61434687 157.91741325 29.608599 160.51866826 24.16519165 161.52307129 C15.72288509 162.26609505 7.26998218 161.90857472 -1.1875 161.625 C-3.78702391 161.574788 -6.38664085 161.52916969 -8.98632812 161.48828125 C-15.32626298 161.37860942 -21.66269628 161.2117412 -28 161 C-25.35137698 158.33821647 -22.70736076 155.68134902 -19.94921875 153.1328125 C-19.15499512 152.39865112 -19.15499512 152.39865112 -18.34472656 151.6496582 C-17.52439941 150.89495239 -17.52439941 150.89495239 -16.6875 150.125 C-16.11354492 149.59543701 -15.53958984 149.06587402 -14.94824219 148.52026367 C-11.92152396 145.7361092 -8.86965149 142.99276396 -5.75 140.3125 C15.42843356 121.83111122 34.32463501 95.4935513 38 67 C39.01899994 50.81357792 35.37162967 36.99018187 25.0703125 24.34765625 C18.36103714 16.73959117 11.08961214 10.0220333 3.1171875 3.77734375 C1 2 1 2 0 0 Z " fill="#BC3C38" transform="translate(196,30)"/>
<path d="M0 0 C12.93394356 -0.30423209 25.6262579 0.65758374 38.5 1.8125 C42.75882372 2.1856718 47.01804327 2.55418892 51.27734375 2.921875 C52.34343369 3.01445084 53.40952362 3.10702667 54.50791931 3.20240784 C61.50292209 3.80401804 68.49996656 4.34214096 75.50390625 4.828125 C76.40623993 4.89154587 77.30857361 4.95496674 78.23825073 5.02030945 C81.66314182 5.26024049 85.08789738 5.50003449 88.51416016 5.71963501 C101.93126596 6.58022194 115.58737646 7.50696745 127.75 13.75 C128.46188477 14.10288086 129.17376953 14.45576172 129.90722656 14.81933594 C145.75312306 22.81049262 162.76081891 34.59596853 169 52 C171.68547069 63.43672481 169.43960806 72.83753223 164 83 C162.6284096 84.96966761 161.20921859 86.90684216 159.75 88.8125 C158.95851562 89.84632812 158.16703125 90.88015625 157.3515625 91.9453125 C156.57554687 92.95335938 155.79953125 93.96140625 155 95 C154.32710937 95.90492187 153.65421875 96.80984375 152.9609375 97.7421875 C152.35507813 98.54914063 151.74921875 99.35609375 151.125 100.1875 C150.59132812 100.90292969 150.05765625 101.61835937 149.5078125 102.35546875 C148 104 148 104 145 105 C145.27263672 104.19949219 145.27263672 104.19949219 145.55078125 103.3828125 C146.37967385 100.92588983 147.18993296 98.46319029 148 96 C148.27457031 95.195625 148.54914063 94.39125 148.83203125 93.5625 C152.23362037 83.10638368 153.50242146 72.64791047 148.80859375 62.3984375 C145.81783566 57.00366406 142.39838127 53.16053672 137.5390625 49.375 C137.03117188 48.92125 136.52328125 48.4675 136 48 C136 47.34 136 46.68 136 46 C135.26007813 45.73316406 134.52015625 45.46632812 133.7578125 45.19140625 C131.05744407 44.02481649 129.18289034 42.73867641 126.875 40.9375 C116.64392277 33.63609326 104.5631389 28.88573648 92.9375 24.25 C91.98713867 23.86424805 91.98713867 23.86424805 91.01757812 23.47070312 C77.97085531 18.43894447 64.13767589 15.44350083 50.4805603 12.60253906 C46.49448293 11.77242236 42.5126616 10.92248927 38.53125 10.0703125 C37.73349655 9.89961243 36.9357431 9.72891235 36.11381531 9.55303955 C24.01864004 6.94689044 12.00680645 3.98368928 0 1 C0 0.67 0 0.34 0 0 Z " fill="#3D3D90" transform="translate(0,0)"/>
<path d="M0 0 C8.38077994 -0.06996543 16.76143485 -0.12304474 25.14243603 -0.15543652 C29.03541171 -0.1709945 32.92818543 -0.1920486 36.82104492 -0.22631836 C40.58824417 -0.25926877 44.35525099 -0.27692688 48.12258339 -0.28463173 C49.54927913 -0.29011204 50.97596611 -0.30081056 52.40257835 -0.31719017 C64.48070849 -0.45016269 75.75810665 0.79107373 86.5625 6.5 C88.26599609 7.38171875 88.26599609 7.38171875 90.00390625 8.28125 C92.51971894 9.72448023 94.82426934 11.08493145 97 13 C97 13.66 97 14.32 97 15 C97.5775 15.226875 98.155 15.45375 98.75 15.6875 C101.59739809 17.34848222 103.12067193 19.31524561 105 22 C105 22.66 105 23.32 105 24 C105.66 24 106.32 24 107 24 C114.75868994 39.56759794 118.83767705 53.95896716 113.97265625 71.15625 C109.03064535 85.60518146 99.47312607 96.88212208 86 104 C85.21595291 104.49671204 84.43190582 104.99342407 83.62409973 105.50518799 C74.23942437 110.85114542 63.24207017 110.42099006 52.76953125 110.328125 C51.24208259 110.32505974 49.71463112 110.32318946 48.18717957 110.32244873 C45.01456709 110.31788468 41.84221401 110.3035982 38.66967773 110.28125 C34.59635972 110.2527035 30.52324248 110.24200773 26.44983387 110.2375679 C23.30925994 110.23342521 20.1687267 110.22362174 17.02817345 110.21169281 C15.52460746 110.20598926 14.02103758 110.20123084 12.51746559 110.19742584 C10.43059907 110.19059038 8.34389513 110.1769783 6.25708008 110.16113281 C5.06971756 110.15430481 3.88235504 110.14747681 2.65901184 110.14044189 C0 110 0 110 -1 109 C-1.09753399 107.62806543 -1.12631614 106.25115994 -1.12698364 104.87576294 C-1.12980347 103.98682343 -1.13262329 103.09788391 -1.13552856 102.18200684 C-1.13350433 101.19913696 -1.1314801 100.21626709 -1.12939453 99.20361328 C-1.13202301 97.65980484 -1.13202301 97.65980484 -1.13470459 96.08480835 C-1.13912614 92.66329286 -1.13618362 89.24182857 -1.1328125 85.8203125 C-1.13348556 83.4523823 -1.13445559 81.08445218 -1.13571167 78.71652222 C-1.13718914 73.74476465 -1.1350329 68.77302502 -1.13037109 63.80126953 C-1.12467999 57.41970959 -1.12794859 51.03819176 -1.13394356 44.65663338 C-1.13755314 39.76341432 -1.13640864 34.87020528 -1.13381577 29.97698593 C-1.13314728 27.62378815 -1.13397221 25.27058946 -1.13629532 22.91739273 C-1.13882764 19.62996251 -1.13497269 16.34260088 -1.12939453 13.05517578 C-1.13141876 12.07635437 -1.13344299 11.09753296 -1.13552856 10.08905029 C-1.13270874 9.19447113 -1.12988892 8.29989197 -1.12698364 7.37820435 C-1.12660662 6.60058809 -1.12622959 5.82297184 -1.12584114 5.02179146 C-1 3 -1 3 0 0 Z M7 8 C5.8435066 16.36994408 5.85242802 24.83728117 5.8671875 33.26953125 C5.86623077 34.50757004 5.86527405 35.74560883 5.86428833 37.02116394 C5.86361159 39.63056489 5.86543036 42.23996757 5.86962891 44.84936523 C5.87493366 48.7635495 5.86969268 52.67761636 5.86328125 56.59179688 C5.85969704 68.51090281 5.95381781 80.41409575 6.4453125 92.32421875 C6.48405487 93.2965596 6.52279724 94.26890045 6.56271362 95.27070618 C6.60405426 96.14905624 6.6453949 97.02740631 6.68798828 97.93237305 C6.7238504 98.69857468 6.75971252 99.46477631 6.79666138 100.25419617 C6.82013275 102.02698378 6.82013275 102.02698378 8 103 C9.74650426 103.10943221 11.49742662 103.14908759 13.24731445 103.16113281 C14.36971024 103.17074036 15.49210602 103.1803479 16.64851379 103.19024658 C17.87438705 103.19449646 19.10026031 103.19874634 20.36328125 103.203125 C21.62077682 103.20882507 22.8782724 103.21452515 24.1738739 103.22039795 C26.84813045 103.22987214 29.5222742 103.23675484 32.1965332 103.24023438 C35.59101952 103.24566732 38.98509406 103.26957254 42.37945271 103.29820633 C45.64486347 103.32157289 48.91029868 103.3233011 52.17578125 103.328125 C53.98119133 103.3466452 53.98119133 103.3466452 55.82307434 103.36553955 C71.61752472 103.32457338 84.33213424 98.72478638 96 88 C97.72698216 85.92983548 99.2968615 83.83255198 100.80859375 81.6015625 C102 80 102 80 104 79 C110.74993535 66.17512284 110.4057872 53.03885801 106.22265625 39.48046875 C103.18330563 30.98854921 97.72589722 23.95722325 91 18 C90.34 18 89.68 18 89 18 C89 17.34 89 16.68 89 16 C86.48521169 14.67467939 83.96418013 13.36479769 81.4375 12.0625 C80.73302734 11.68931641 80.02855469 11.31613281 79.30273438 10.93164062 C78.60341797 10.57392578 77.90410156 10.21621094 77.18359375 9.84765625 C76.54993896 9.51773682 75.91628418 9.18781738 75.26342773 8.84790039 C68.11339207 6.16943271 60.17146139 6.85482655 52.6640625 6.8671875 C51.3889682 6.86623077 50.1138739 6.86527405 48.80014038 6.86428833 C46.11558588 6.86360968 43.43112332 6.86493583 40.74658203 6.86962891 C37.29977101 6.87536029 33.85303729 6.87201955 30.40622902 6.86605644 C27.11717067 6.8615885 23.82812185 6.8647085 20.5390625 6.8671875 C19.29750397 6.86516327 18.05594543 6.86313904 16.77676392 6.86105347 C15.63822968 6.86420563 14.49969543 6.86735779 13.32666016 6.87060547 C11.81611557 6.87179886 11.81611557 6.87179886 10.27505493 6.87301636 C8.03319915 6.74460031 8.03319915 6.74460031 7 8 Z " fill="#F9EF1C" transform="translate(7,32)"/>
<path d="M0 0 C0 0.66 0 1.32 0 2 C0.5775 2.226875 1.155 2.45375 1.75 2.6875 C4.59739809 4.34848222 6.12067193 6.31524561 8 9 C8 9.66 8 10.32 8 11 C8.66 11 9.32 11 10 11 C13.16727335 16.1468192 13.35050464 20.158256 13 26 C11.515 26.495 11.515 26.495 10 27 C7.07464368 25.53732184 6.5658679 23.09029365 5.1953125 20.2578125 C2.4983297 15.16351165 -0.87810888 10.74160347 -5.375 7.125 C-6.24125 6.42375 -7.1075 5.7225 -8 5 C-8 4.34 -8 3.68 -8 3 C-8.71671875 2.7215625 -9.4334375 2.443125 -10.171875 2.15625 C-12.9205367 1.03248776 -15.57299708 -0.216291 -18.25 -1.5 C-23.14433032 -3.75125913 -27.70776241 -5.04566207 -33 -6 C-33 -6.66 -33 -7.32 -33 -8 C-52.47 -8 -71.94 -8 -92 -8 C-92 -7.34 -92 -6.68 -92 -6 C-92.99 -6.33 -93.98 -6.66 -95 -7 C-94.34 -8.65 -93.68 -10.3 -93 -12 C-86.58118684 -12.14475945 -80.16231857 -12.28686376 -73.7434082 -12.42724609 C-71.56631179 -12.47515797 -69.38922796 -12.52364583 -67.2121582 -12.57275391 C-15.60464374 -13.73513874 -15.60464374 -13.73513874 0 0 Z " fill="#F2EC34" transform="translate(104,45)"/>
<path d="M0 0 C16.83 0 33.66 0 51 0 C51 0.33 51 0.66 51 1 C35.49 1 19.98 1 4 1 C3.67 2.65 3.34 4.3 3 6 C3.66 6.33 4.32 6.66 5 7 C5 6.34 5 5.68 5 5 C24.47 5 43.94 5 64 5 C64 5.66 64 6.32 64 7 C45.52 7.33 27.04 7.66 8 8 C7.18037275 17.40702444 7.18037275 17.40702444 6.79467773 26.77832031 C6.77473251 27.95863831 6.75478729 29.1389563 6.73423767 30.3550415 C6.71752518 31.58365906 6.70081268 32.81227661 6.68359375 34.078125 C6.66281265 35.37071228 6.64203156 36.66329956 6.62062073 37.99505615 C6.56611619 41.3880347 6.5163994 44.7810661 6.46777344 48.1741333 C6.41702626 51.65389563 6.36162155 55.1335837 6.30664062 58.61328125 C6.19993881 65.40878953 6.09830858 72.20436525 6 79 C5.34 78.67 4.68 78.34 4 78 C3.67 62.16 3.34 46.32 3 30 C2.67 30 2.34 30 2 30 C1.85430707 37.39333085 1.71236044 44.78672753 1.57275391 52.18017578 C1.5250694 54.68377223 1.47659535 57.18735379 1.42724609 59.69091797 C1.35555275 63.33557343 1.28691382 66.980277 1.21875 70.625 C1.19687622 71.70418701 1.17500244 72.78337402 1.15246582 73.89526367 C0.93927834 85.60127219 1 97.2845402 1 109 C23.11 109 45.22 109 68 109 C68 109.33 68 109.66 68 110 C59.1511761 110.02312589 50.30236253 110.04091634 41.45351505 110.05181217 C37.34505715 110.05704046 33.23661986 110.06413713 29.12817383 110.07543945 C25.16653172 110.08627025 21.20490948 110.09227724 17.24325371 110.09487724 C15.72851689 110.09673114 14.21378121 110.1003511 12.69905281 110.10573006 C10.58458187 110.11294307 8.47019406 110.11399083 6.35571289 110.11352539 C4.54702477 110.11685631 4.54702477 110.11685631 2.70179749 110.12025452 C0 110 0 110 -1 109 C-1.09753399 107.62806543 -1.12631614 106.25115994 -1.12698364 104.87576294 C-1.12980347 103.98682343 -1.13262329 103.09788391 -1.13552856 102.18200684 C-1.13350433 101.19913696 -1.1314801 100.21626709 -1.12939453 99.20361328 C-1.13202301 97.65980484 -1.13202301 97.65980484 -1.13470459 96.08480835 C-1.13912614 92.66329286 -1.13618362 89.24182857 -1.1328125 85.8203125 C-1.13348556 83.4523823 -1.13445559 81.08445218 -1.13571167 78.71652222 C-1.13718914 73.74476465 -1.1350329 68.77302502 -1.13037109 63.80126953 C-1.12467999 57.41970959 -1.12794859 51.03819176 -1.13394356 44.65663338 C-1.13755314 39.76341432 -1.13640864 34.87020528 -1.13381577 29.97698593 C-1.13314728 27.62378815 -1.13397221 25.27058946 -1.13629532 22.91739273 C-1.13882764 19.62996251 -1.13497269 16.34260088 -1.12939453 13.05517578 C-1.13141876 12.07635437 -1.13344299 11.09753296 -1.13552856 10.08905029 C-1.13270874 9.19447113 -1.12988892 8.29989197 -1.12698364 7.37820435 C-1.12660662 6.60058809 -1.12622959 5.82297184 -1.12584114 5.02179146 C-1 3 -1 3 0 0 Z " fill="#EDE53B" transform="translate(7,32)"/>
<path d="M0 0 C13.75757376 -0.36905563 27.30613114 0.78692838 41 2 C43.23952964 2.19333135 45.47911277 2.38604409 47.71875 2.578125 C53.14646977 3.04496387 58.57348281 3.51939432 64 4 C64 4.33 64 4.66 64 5 C60.7 5.33 57.4 5.66 54 6 C54.99 6.33 55.98 6.66 57 7 C57.495 7.99 57.495 7.99 58 9 C60.52733235 9.65555119 60.52733235 9.65555119 63 10 C63.495 11.485 63.495 11.485 64 13 C67.51190809 14.22969878 67.51190809 14.22969878 71 15 C71 15.33 71 15.66 71 16 C62.77681522 15.29360307 54.8043102 13.61087171 46.75 11.875 C46.03788361 11.72304169 45.32576721 11.57108337 44.59207153 11.41452026 C29.65880925 8.22596852 14.81852566 4.68306089 0 1 C0 0.67 0 0.34 0 0 Z " fill="#32347C" transform="translate(0,0)"/>
<path d="M0 0 C5.78867715 1.57444476 10.54366974 4.47354834 15.625 7.5625 C16.51364746 8.10116699 17.40229492 8.63983398 18.31787109 9.19482422 C29.43552564 16.01357138 39.03442909 23.49887507 48 33 C44.39199098 33 41.24728736 32.62364368 38 31 C37.34 31.66 36.68 32.32 36 33 C35.01 32.67 34.02 32.34 33 32 C32.505 32.99 32.505 32.99 32 34 C31.56171875 33.34515625 31.1234375 32.6903125 30.671875 32.015625 C22.9782441 20.94430248 13.68227627 12.02220721 3.08203125 3.7421875 C1 2 1 2 0 0 Z " fill="#B43A35" transform="translate(196,30)"/>
<path d="M0 0 C2.15465933 2.15465933 2.63689477 3.40049281 3.5625 6.25 C3.81128906 6.99765625 4.06007813 7.7453125 4.31640625 8.515625 C8.24666538 22.7993096 6.15557116 37.16932067 -1 50 C-2 48 -2 48 -2 44 C-2.66 44 -3.32 44 -4 44 C-4 44.66 -4 45.32 -4 46 C-4.66 46 -5.32 46 -6 46 C-5.52309796 44.37433394 -5.04340334 42.74948689 -4.5625 41.125 C-4.16224609 39.76761719 -4.16224609 39.76761719 -3.75390625 38.3828125 C-3 36 -3 36 -2 34 C-1.44952765 24.82119364 -2.32252485 16.01642893 -4 7 C-3.01 7 -2.02 7 -1 7 C-0.67 4.69 -0.34 2.38 0 0 Z " fill="#EFE647" transform="translate(117,64)"/>
<path d="M0 0 C1.3478188 -0.04557912 2.69563779 -0.09115257 4.04345703 -0.13671875 C5.16872803 -0.19021484 6.29399902 -0.24371094 7.45336914 -0.29882812 C10.26611328 0.20703125 10.26611328 0.20703125 14.26611328 5.20703125 C-7.18388672 5.20703125 -28.63388672 5.20703125 -50.73388672 5.20703125 C-50.73388672 5.86703125 -50.73388672 6.52703125 -50.73388672 7.20703125 C-51.72388672 6.87703125 -52.71388672 6.54703125 -53.73388672 6.20703125 C-53.07388672 4.55703125 -52.41388672 2.90703125 -51.73388672 1.20703125 C-45.31507356 1.0622718 -38.89620529 0.92016749 -32.47729492 0.77978516 C-30.30019851 0.73187328 -28.12311468 0.68338542 -25.94604492 0.63427734 C-20.75158876 0.51727971 -15.55733399 0.4085606 -10.36230469 0.3203125 C-6.904431 0.26035905 -3.454619 0.15991454 0 0 Z " fill="#FCEF11" transform="translate(62.73388671875,31.79296875)"/>
<path d="M0 0 C16.87934987 2.95583085 32.14846212 8.49252456 47 17 C46.01 17.495 46.01 17.495 45 18 C43.00455975 17.12154088 41.05095788 16.14684073 39.125 15.125 C34.25850964 12.52930984 34.25850964 12.52930984 29 11 C29.33 11.99 29.66 12.98 30 14 C29.01 15.485 29.01 15.485 28 17 C29.65 16.34 31.3 15.68 33 15 C32.67 16.32 32.34 17.64 32 19 C32.66 19 33.32 19 34 19 C34 21.33333333 34 23.66666667 34 26 C32.7315625 24.576875 32.7315625 24.576875 31.4375 23.125 C22.64552431 14.35082183 11.2023334 8.13179519 0 3 C0 2.01 0 1.02 0 0 Z " fill="#F5DE52" transform="translate(141,14)"/>
<path d="M0 0 C0 1.65 0 3.3 0 5 C-1.36125 4.9690625 -1.36125 4.9690625 -2.75 4.9375 C-5.42672588 4.9889755 -7.46988052 5.2215017 -10 6 C-8.96593327 7.25949049 -8.96593327 7.25949049 -6.71484375 7.09765625 C-5.79832031 7.08605469 -4.88179687 7.07445312 -3.9375 7.0625 C-3.01839844 7.05347656 -2.09929688 7.04445312 -1.15234375 7.03515625 C-0.44207031 7.02355469 0.26820312 7.01195312 1 7 C0.67 8.32 0.34 9.64 0 11 C28.71 11 57.42 11 87 11 C87 11.33 87 11.66 87 12 C73.26567245 12.13066157 59.53134252 12.26106911 45.79700947 12.39115143 C39.41976618 12.45156037 33.04252376 12.51205714 26.6652832 12.57275391 C20.51208373 12.63131509 14.35888211 12.68964653 8.20567894 12.74781799 C5.85692454 12.77006328 3.50817092 12.79239165 1.15941811 12.81480408 C-2.12768733 12.84615639 -5.41479542 12.87721455 -8.7019043 12.90820312 C-10.16170715 12.92222923 -10.16170715 12.92222923 -11.65100098 12.9365387 C-12.54977463 12.94495285 -13.44854828 12.953367 -14.3745575 12.96203613 C-15.15162898 12.96941048 -15.92870047 12.97678482 -16.72931957 12.98438263 C-19.15294694 13.00105194 -21.57632296 13.00260108 -24 13 C-23 10 -23 10 -20.99047852 8.74145508 C-20.12865967 8.33822021 -19.26684082 7.93498535 -18.37890625 7.51953125 C-17.44369141 7.07802734 -16.50847656 6.63652344 -15.54492188 6.18164062 C-14.06862305 5.50391602 -14.06862305 5.50391602 -12.5625 4.8125 C-11.09200195 4.11737305 -11.09200195 4.11737305 -9.59179688 3.40820312 C-2.29854335 0 -2.29854335 0 0 0 Z " fill="#EDD552" transform="translate(30,179)"/>
<path d="M0 0 C0.33 0 0.66 0 1 0 C1.01030746 0.61165512 1.02061493 1.22331024 1.03123474 1.85350037 C1.13906745 8.19582316 1.25368342 14.53799714 1.37231445 20.88012695 C1.4157381 23.24988708 1.45740749 25.61968 1.49731445 27.98950195 C1.55483768 31.38763333 1.61858303 34.78559843 1.68359375 38.18359375 C1.70030624 39.25024765 1.71701874 40.31690155 1.73423767 41.4158783 C1.75418289 42.39681961 1.77412811 43.37776093 1.79467773 44.38842773 C1.81799416 45.69081642 1.81799416 45.69081642 1.84178162 47.01951599 C1.78462425 49.00080779 1.78462425 49.00080779 3 50 C3.08744607 51.81850225 3.10697565 53.64035782 3.09765625 55.4609375 C3.09443359 56.57210937 3.09121094 57.68328125 3.08789062 58.828125 C3.07951172 59.99859375 3.07113281 61.1690625 3.0625 62.375 C3.05798828 63.53773437 3.05347656 64.70046875 3.04882812 65.8984375 C3.04007547 68.05909223 3.02928183 70.21974026 3.01586914 72.38037109 C3.00452181 74.25355383 3 76.1267829 3 78 C1.02 78.495 1.02 78.495 -1 79 C-2.16472716 75.50581852 -2.09752075 72.41989333 -2.03759766 68.79052734 C-2.02959641 68.06017776 -2.02159515 67.32982819 -2.01335144 66.5773468 C-1.98547154 64.16344766 -1.94999842 61.74972918 -1.9140625 59.3359375 C-1.89229635 57.66110632 -1.87084668 55.98627101 -1.84970093 54.31143188 C-1.80420953 50.80261806 -1.75498268 47.29388159 -1.703125 43.78515625 C-1.6367948 39.2778609 -1.579569 34.77050438 -1.52509499 30.26305199 C-1.4823495 26.80588567 -1.43490151 23.3487964 -1.38599777 19.89171219 C-1.36303459 18.22907049 -1.3415332 16.56640796 -1.32149124 14.90372849 C-1.29283027 12.58594839 -1.25787983 10.26834859 -1.22119141 7.95068359 C-1.2138649 7.25768661 -1.20653839 6.56468964 -1.19898987 5.85069275 C-1.11427607 1.11427607 -1.11427607 1.11427607 0 0 Z " fill="#FBF10F" transform="translate(10,61)"/>
<path d="M0 0 C0.33 0.99 0.66 1.98 1 3 C1.66 3.33 2.32 3.66 3 4 C3 7.3 3 10.6 3 14 C3.33 13.34 3.66 12.68 4 12 C6.31 12.33 8.62 12.66 11 13 C11.99 11.68 12.98 10.36 14 9 C13.52556978 13.74430218 11.29171388 16.66233001 8.375 20.25 C7.46475505 21.39576287 6.55459929 22.5415966 5.64453125 23.6875 C5.1954541 24.24695313 4.74637695 24.80640625 4.28369141 25.3828125 C1.94325075 28.331287 -0.28294616 31.36868426 -2.52734375 34.390625 C-4 36 -4 36 -7 37 C-6.81824219 36.46632812 -6.63648438 35.93265625 -6.44921875 35.3828125 C-5.62032615 32.92588983 -4.81006704 30.46319029 -4 28 C-3.72542969 27.195625 -3.45085937 26.39125 -3.16796875 25.5625 C-0.43415639 17.15905709 0.19550006 8.79750279 0 0 Z " fill="#3A3B8C" transform="translate(152,68)"/>
<path d="M0 0 C0.33 0 0.66 0 1 0 C1.33 7.59 1.66 15.18 2 23 C9.35498769 23.06820537 16.70979798 23.12306088 24.06503677 23.15543652 C27.48162993 23.17098758 30.89799258 23.19202813 34.31445312 23.22631836 C38.2564808 23.26562883 42.19842032 23.2797964 46.140625 23.29296875 C47.34736877 23.30845261 48.55411255 23.32393646 49.79742432 23.33988953 C59.76514179 23.34183611 68.64075211 21.3797284 78 18 C75.63780741 21.80575472 73.13539094 23.34584363 69 25 C66.1875 25.125 66.1875 25.125 64 25 C63.505 25.495 63.505 25.495 63 26 C60.97505769 26.09409479 58.9468013 26.11743122 56.91967773 26.11352539 C54.96776772 26.11341209 54.96776772 26.11341209 52.97642517 26.11329651 C51.54548098 26.10818909 50.11453718 26.10297308 48.68359375 26.09765625 C47.2277074 26.09579203 45.77182043 26.09436815 44.31593323 26.09336853 C40.47720621 26.08954365 36.63851681 26.07971364 32.79980469 26.06866455 C28.88542184 26.05844978 24.97103294 26.05387077 21.05664062 26.04882812 C13.37107657 26.03809134 5.68554355 26.02101529 -2 26 C-1.34 25.67 -0.68 25.34 0 25 C0 16.75 0 8.5 0 0 Z " fill="#F2E53C" transform="translate(13,111)"/>
<path d="M0 0 C10.33115022 -0.63511169 17.6385753 0.11881021 27 5 C27 5.66 27 6.32 27 7 C26.0925 6.690625 25.185 6.38125 24.25 6.0625 C21.83436662 5.2727737 19.47219715 4.57050703 17 4 C17 4.99 17 5.98 17 7 C21.62 9.31 26.24 11.62 31 14 C28 15 28 15 25.64453125 13.85546875 C24.70996094 13.30503906 23.77539062 12.75460938 22.8125 12.1875 C15.40648702 8.27094589 8.21755702 7.60484557 0 7 C0 4.69 0 2.38 0 0 Z " fill="#282724" transform="translate(13,52)"/>
<path d="M0 0 C0.33 0.66 0.66 1.32 1 2 C0.67 2.66 0.34 3.32 0 4 C-0.11990814 8.43660119 0.18339232 11.94631267 2.9375 15.5 C7.20693103 17.59114989 11.29454379 17.81726384 16 18 C15.67 18.66 15.34 19.32 15 20 C10.71 20 6.42 20 2 20 C4.69252331 23.33544611 4.69252331 23.33544611 8.35546875 23.29296875 C9.62003906 23.25816406 10.88460937 23.22335938 12.1875 23.1875 C13.45980469 23.16042969 14.73210937 23.13335937 16.04296875 23.10546875 C17.01878906 23.07066406 17.99460937 23.03585938 19 23 C18.67 23.66 18.34 24.32 18 25 C11.31201825 26.73392119 6.11642351 26.00455892 0 23 C-2.75560335 20.59534614 -3.66539242 18.38100588 -5 15 C-5.66 14.67 -6.32 14.34 -7 14 C-6.67 12.68 -6.34 11.36 -6 10 C-5.34 10 -4.68 10 -4 10 C-4 8.35 -4 6.7 -4 5 C-3.34 5 -2.68 5 -2 5 C-1.34 3.35 -0.68 1.7 0 0 Z " fill="#29282A" transform="translate(69,97)"/>
<path d="M0 0 C12.4612638 -0.3172599 24.61918735 0.64201122 37 2 C37 2.33 37 2.66 37 3 C35.02 3 33.04 3 31 3 C34.48720616 7.3590077 37.72760915 7.94552183 43 9 C43 9.33 43 9.66 43 10 C33.92714184 9.34375423 25.25275938 7.065762 16.4375 4.9375 C14.84061271 4.55614652 13.24360835 4.17528289 11.64648438 3.79492188 C7.76294914 2.86892785 3.88106199 1.93630342 0 1 C0 0.67 0 0.34 0 0 Z " fill="#2D2D74" transform="translate(0,0)"/>
<path d="M0 0 C19.47 0 38.94 0 59 0 C59 0.66 59 1.32 59 2 C40.52 2.33 22.04 2.66 3 3 C2.67 6.96 2.34 10.92 2 15 C1.67 15 1.34 15 1 15 C0.67 10.05 0.34 5.1 0 0 Z " fill="#E9E240" transform="translate(12,37)"/>
<path d="M0 0 C0 2.97 0 5.94 0 9 C0.33 8.34 0.66 7.68 1 7 C1.66 7 2.32 7 3 7 C5 10 5 10 4.625 13.1875 C4.41875 14.115625 4.2125 15.04375 4 16 C0.37673261 17.2077558 -0.64146369 16.54311128 -4 15 C-4.33 16.65 -4.66 18.3 -5 20 C-5.33 20 -5.66 20 -6 20 C-6.0272616 17.95840905 -6.04651345 15.91671037 -6.0625 13.875 C-6.07410156 12.73804687 -6.08570313 11.60109375 -6.09765625 10.4296875 C-6.005327 7.1870844 -5.61389906 4.18067388 -5 1 C-2 0 -2 0 0 0 Z " fill="#43429A" transform="translate(160,65)"/>
<path d="M0 0 C5.89145324 1.58393169 10.71328966 4.60542164 15.875 7.75 C16.73480469 8.26304688 17.59460938 8.77609375 18.48046875 9.3046875 C23.90010014 12.57784879 29.01722019 16.09405912 34 20 C33.01 20.495 33.01 20.495 32 21 C29.375 20.0625 29.375 20.0625 27 19 C27 18.34 27 17.68 27 17 C26.34 17 25.68 17 25 17 C25 16.34 25 15.68 25 15 C22.69 14.67 20.38 14.34 18 14 C20.36292656 16.52588702 21.66462511 17.88820837 25 19 C25.33 19.99 25.66 20.98 26 22 C23 22 23 22 20.6875 19.91015625 C19.800625 18.97042969 18.91375 18.03070313 18 17.0625 C13.32249823 12.19399892 8.43795558 7.94502753 3.1171875 3.77734375 C1 2 1 2 0 0 Z " fill="#9D3332" transform="translate(196,30)"/>
<path d="M0 0 C19.76899604 -0.64698533 45.53140904 -1.33855383 63 9 C62.01 9.33 61.02 9.66 60 10 C59.4225 9.67 58.845 9.34 58.25 9 C55.86777604 7.70264566 55.86777604 7.70264566 52.5 8.5 C48.97750203 9.003214 47.80864481 9.05247121 45 7 C44.505 6.01 44.505 6.01 44 5 C41.78946923 4.52976237 41.78946923 4.52976237 39.1171875 4.3671875 C37.61285156 4.24150391 37.61285156 4.24150391 36.078125 4.11328125 C35.02109375 4.03464844 33.9640625 3.95601562 32.875 3.875 C31.84117188 3.78863281 30.80734375 3.70226562 29.7421875 3.61328125 C25.55423429 3.2767493 21.42578962 2.99911936 17.22265625 3.0078125 C13.58533013 2.99899474 10.15662172 2.54767569 6.5625 2 C4.70818359 1.7215625 4.70818359 1.7215625 2.81640625 1.4375 C1.88699219 1.293125 0.95757812 1.14875 0 1 C0 0.67 0 0.34 0 0 Z " fill="#2B2A69" transform="translate(64,5)"/>
<path d="M0 0 C4.91782348 1.06622398 9.00526164 3.64991002 13.3359375 6.1171875 C17.26859236 8.28966216 20.46698467 9.52926379 25 10 C26.36224672 10.17633057 27.72420897 10.35486753 29.0859375 10.53515625 C30.51546819 10.71220822 31.94515903 10.88797149 33.375 11.0625 C34.11105469 11.15337891 34.84710938 11.24425781 35.60546875 11.33789062 C37.40350645 11.55972644 39.20173405 11.7800221 41 12 C41 12.33 41 12.66 41 13 C39.02 13 37.04 13 35 13 C34.67 13.99 34.34 14.98 34 16 C32.15234375 16.73046875 32.15234375 16.73046875 29.9375 17.1875 C29.20402344 17.34605469 28.47054687 17.50460938 27.71484375 17.66796875 C27.14894531 17.77753906 26.58304688 17.88710937 26 18 C26 17.01 26 16.02 26 15 C25.38125 14.855625 24.7625 14.71125 24.125 14.5625 C22 14 22 14 20 13 C20 12.34 20 11.68 20 11 C19.37351562 10.86722656 18.74703125 10.73445313 18.1015625 10.59765625 C17.28429687 10.42105469 16.46703125 10.24445313 15.625 10.0625 C14.81289063 9.88847656 14.00078125 9.71445313 13.1640625 9.53515625 C10.39424995 8.85020261 9.18725996 8.1937172 7.1875 6.125 C4.95058414 3.95199602 2.68133579 2.56411255 0 1 C0 0.67 0 0.34 0 0 Z " fill="#2B292B" transform="translate(47,62)"/>
<path d="M0 0 C4.14287795 1.67289608 7.2895472 3.04532904 10 6.6875 C11.26833759 10.88886826 11.26107969 14.64867189 11 19 C9.68 19 8.36 19 7 19 C7 17.35 7 15.7 7 14 C6.34 14 5.68 14 5 14 C5 12.68 5 11.36 5 10 C4.01 9.67 3.02 9.34 2 9 C-0.04108797 5.99208089 -0.19878036 3.57804656 0 0 Z " fill="#FAF014" transform="translate(106,52)"/>
<path d="M0 0 C1.9765625 1.3515625 1.9765625 1.3515625 4 4 C4.56979931 7.46333541 4.46611608 10.87422439 4.375 14.375 C4.37371094 15.30828125 4.37242188 16.2415625 4.37109375 17.203125 C4.30766924 22.17842547 3.9473166 26.3420187 2 31 C0 29 0 29 -0.25 25.3125 C-0.1609339 21.25257007 0.71970422 17.84088735 2 14 C1.01 13.67 0.02 13.34 -1 13 C-1.02686553 11.02090602 -1.04633375 9.04171029 -1.0625 7.0625 C-1.07410156 5.96035156 -1.08570312 4.85820313 -1.09765625 3.72265625 C-1 1 -1 1 0 0 Z " fill="#FBF017" transform="translate(117,72)"/>
<path d="M0 0 C1 1 1 1 1.5 3.1875 C0.71728455 7.59027438 -2.5343881 9.42731362 -6 12 C-6.66 11.67 -7.32 11.34 -8 11 C-5.69 8.69 -3.38 6.38 -1 4 C-1.33 3.01 -1.66 2.02 -2 1 C-6.20643886 3.23467065 -9.48367866 6.13483211 -13.00390625 9.2890625 C-15.53528616 11.45881671 -18.19828974 13.19890055 -21 15 C-21.66 15.66 -22.32 16.32 -23 17 C-22.67 15.35 -22.34 13.7 -22 12 C-20.68 11.67 -19.36 11.34 -18 11 C-18.66 9.68 -19.32 8.36 -20 7 C-18.25 5.875 -18.25 5.875 -16 5 C-13.75 5.875 -13.75 5.875 -12 7 C-12 6.01 -12 5.02 -12 4 C-11.34 4 -10.68 4 -10 4 C-9.62875 3.0409375 -9.62875 3.0409375 -9.25 2.0625 C-8 0 -8 0 -6.125 -0.8125 C-3.80550138 -1.01716164 -2.19412936 -0.75659633 0 0 Z " fill="#F4DC4D" transform="translate(164,125)"/>
<path d="M0 0 C0.33 0.66 0.66 1.32 1 2 C-0.32 3.65 -1.64 5.3 -3 7 C-1.35 7.33 0.3 7.66 2 8 C2 6.68 2 5.36 2 4 C3.32 3.67 4.64 3.34 6 3 C6 2.34 6 1.68 6 1 C6.66 1 7.32 1 8 1 C5.21804619 9.13403755 -1.94749941 14.48639962 -9 19 C-9.66 19 -10.32 19 -11 19 C-10.34 17.35 -9.68 15.7 -9 14 C-7.68 14 -6.36 14 -5 14 C-5 12.68 -5 11.36 -5 10 C-5.7425 10.309375 -6.485 10.61875 -7.25 10.9375 C-9.50692176 11.8094925 -11.6450153 12.47667007 -14 13 C-10.91551281 9.65847221 -7.49310993 7.08849518 -3.8046875 4.46484375 C-1.74831569 2.94362033 -1.74831569 2.94362033 0 0 Z " fill="#F5EB3E" transform="translate(105,116)"/>
<path d="M0 0 C2.9719385 1.12451727 5.33440687 2.22293791 8 4 C8 4.66 8 5.32 8 6 C8.5775 6.226875 9.155 6.45375 9.75 6.6875 C12.5663661 8.33038023 14.08077114 10.39533227 16 13 C15.67 13.66 15.34 14.32 15 15 C13.68 14.01 12.36 13.02 11 12 C11.46961638 16.22654744 11.96734498 18.09919954 15 21 C15 22.32 15 23.64 15 25 C15.66 25 16.32 25 17 25 C17 26.65 17 28.3 17 30 C14.90846944 27.33750563 13.27274991 24.70619084 11.75 21.6875 C9.20266419 16.98232926 5.96277465 13.55165106 2 10 C3.32 9.67 4.64 9.34 6 9 C6 9.99 6 10.98 6 12 C6.99 12 7.98 12 9 12 C9 10.68 9 9.36 9 8 C7.35 7.67 5.7 7.34 4 7 C3.896875 6.401875 3.79375 5.80375 3.6875 5.1875 C2.91123545 2.71756736 1.92911079 1.67748765 0 0 Z " fill="#F4ED3D" transform="translate(96,41)"/>
<path d="M0 0 C7.827522 0.26489076 14.07728579 1.24145567 21 5 C21 5.66 21 6.32 21 7 C21.66 7.33 22.32 7.66 23 8 C22.67 9.65 22.34 11.3 22 13 C21.34 13 20.68 13 20 13 C20 12.34 20 11.68 20 11 C18.1128125 10.938125 18.1128125 10.938125 16.1875 10.875 C15.47980469 10.85179688 14.77210937 10.82859375 14.04296875 10.8046875 C11.68640281 10.86745538 11.68640281 10.86745538 9 13 C9.33 10.36 9.66 7.72 10 5 C10.33 5.99 10.66 6.98 11 8 C13.31 8 15.62 8 18 8 C18 7.01 18 6.02 18 5 C15.03 4.67 12.06 4.34 9 4 C8.67 4.99 8.34 5.98 8 7 C7.01 7.33 6.02 7.66 5 8 C5 5.66666667 5 3.33333333 5 1 C3.35 1 1.7 1 0 1 C0 0.67 0 0.34 0 0 Z " fill="#252423" transform="translate(92,75)"/>
<path d="M0 0 C16.83 0 33.66 0 51 0 C51 0.33 51 0.66 51 1 C35.49 1 19.98 1 4 1 C2.2390595 6.20347276 2.2390595 6.20347276 1.375 11.375 C1.25125 12.57125 1.1275 13.7675 1 15 C0.34 15 -0.32 15 -1 15 C-1.02703381 13.06257659 -1.04641125 11.12504521 -1.0625 9.1875 C-1.07410156 8.10855469 -1.08570313 7.02960937 -1.09765625 5.91796875 C-1 3 -1 3 0 0 Z " fill="#EBE145" transform="translate(7,32)"/>
<path d="M0 0 C0.33 0.99 0.66 1.98 1 3 C1.66 3.33 2.32 3.66 3 4 C2.88501733 6.20887757 2.75756495 8.41710787 2.625 10.625 C2.55539063 11.85476562 2.48578125 13.08453125 2.4140625 14.3515625 C2.0185513 17.83653855 1.23738151 20.73049601 0 24 C0.66 24.33 1.32 24.66 2 25 C1.01 25 0.02 25 -1 25 C-1.33 26.32 -1.66 27.64 -2 29 C-1.01 28.67 -0.02 28.34 1 28 C-0.30613942 31.91841827 -1.83129848 34.32640809 -5 37 C-5.66 37 -6.32 37 -7 37 C-6.81824219 36.46632812 -6.63648438 35.93265625 -6.44921875 35.3828125 C-5.62032615 32.92588983 -4.81006704 30.46319029 -4 28 C-3.72542969 27.195625 -3.45085937 26.39125 -3.16796875 25.5625 C-0.43415639 17.15905709 0.19550006 8.79750279 0 0 Z " fill="#2B2A6F" transform="translate(152,68)"/>
<path d="M0 0 C2.21322216 0.98133436 4.38855938 2.0052752 6.546875 3.1015625 C3.859375 6.0546875 3.859375 6.0546875 1.046875 6.4765625 C-3.95315866 5.94084461 -8.64489118 4.5388993 -13.453125 3.1015625 C-13.453125 2.4415625 -13.453125 1.7815625 -13.453125 1.1015625 C-9.1164 -1.6739415 -4.80379014 -1.75934989 0 0 Z " fill="#FAF014" transform="translate(84.453125,35.8984375)"/>
<path d="M0 0 C8.1698614 1.43066697 16.05394988 3.64137417 24 6 C21.7895158 6.5690821 19.62920171 7.06179972 17.375 7.4375 C14.82892516 7.82100329 14.82892516 7.82100329 13 10 C12.39671875 9.66226562 11.7934375 9.32453125 11.171875 8.9765625 C10.37265625 8.53054687 9.5734375 8.08453125 8.75 7.625 C7.96109375 7.18414063 7.1721875 6.74328125 6.359375 6.2890625 C4.26085803 5.14252177 2.1463923 4.05350448 0 3 C0 2.01 0 1.02 0 0 Z " fill="#F2E04E" transform="translate(141,14)"/>
<path d="M0 0 C2.20887757 0.11498267 4.41710787 0.24243505 6.625 0.375 C8.46964844 0.47941406 8.46964844 0.47941406 10.3515625 0.5859375 C13.83653855 0.9814487 16.73049601 1.76261849 20 3 C19.01 3.33 18.02 3.66 17 4 C16.67 4.99 16.34 5.98 16 7 C11.17019236 6.40859498 6.57180875 5.70322287 2 4 C0.80078125 1.92578125 0.80078125 1.92578125 0 0 Z " fill="#3D3F93" transform="translate(31,3)"/>
<path d="M0 0 C0.66 0.33 1.32 0.66 2 1 C0.35 2.65 -1.3 4.3 -3 6 C-1.40134037 7.59865963 0.30456032 7.16483531 2.51977539 7.20532227 C3.96115623 7.2352401 3.96115623 7.2352401 5.43165588 7.26576233 C6.476436 7.28247482 7.52121613 7.29918732 8.59765625 7.31640625 C9.66165146 7.33718735 10.72564667 7.35796844 11.82188416 7.37937927 C15.2353544 7.44499254 18.64890429 7.50381423 22.0625 7.5625 C24.37045109 7.60567403 26.678394 7.64928794 28.98632812 7.69335938 C34.65746682 7.80068584 40.32868552 7.90242992 46 8 C46 8.33 46 8.66 46 9 C27.85 9 9.7 9 -9 9 C-6 6 -3 3 0 0 Z " fill="#7C2C2B" transform="translate(177,182)"/>
<path d="M0 0 C0.66 0.33 1.32 0.66 2 1 C1.67 2.98 1.34 4.96 1 7 C-0.98 7 -2.96 7 -5 7 C-5 7.66 -5 8.32 -5 9 C-5.78375 9.268125 -6.5675 9.53625 -7.375 9.8125 C-10.28114923 10.84814432 -10.28114923 10.84814432 -12 14 C-15.625 14.1875 -15.625 14.1875 -19 14 C-17.1875 12 -17.1875 12 -15 10 C-14.01 10 -13.02 10 -12 10 C-12 9.34 -12 8.68 -12 8 C-10.23596271 6.74163402 -8.41220501 5.5661735 -6.5625 4.4375 C-3.09563564 2.46466077 -3.09563564 2.46466077 0 0 Z " fill="#F2DA52" transform="translate(140,118)"/>
<path d="M0 0 C0.66 0 1.32 0 2 0 C2.29058436 4.9399341 2.21320034 8.09825673 -1 12 C-3.1875 12.8125 -3.1875 12.8125 -5 13 C-5.33 14.32 -5.66 15.64 -6 17 C-7.65 17.33 -9.3 17.66 -11 18 C-11 17.34 -11 16.68 -11 16 C-11.99 16 -12.98 16 -14 16 C-14 14.02 -14 12.04 -14 10 C-12.68 9.67 -11.36 9.34 -10 9 C-11.485 11.475 -11.485 11.475 -13 14 C-9.98968256 14.93423645 -9.13349732 15.04449911 -6 14 C-4.99083967 12.23408113 -4.99083967 12.23408113 -4 10 C-3.29875 9.01 -2.5975 8.02 -1.875 7 C0.35333263 4.02429162 0.35333263 4.02429162 0 0 Z " fill="#F4DE5A" transform="translate(193,90)"/>
<path d="M0 0 C0.33 0 0.66 0 1 0 C1 1.98 1 3.96 1 6 C-4.94 6.33 -10.88 6.66 -17 7 C-17 7.66 -17 8.32 -17 9 C-18.98 9 -20.96 9 -23 9 C-23.33 9.99 -23.66 10.98 -24 12 C-24.33 12 -24.66 12 -25 12 C-25.33 9.36 -25.66 6.72 -26 4 C-13.13 4.495 -13.13 4.495 0 5 C0 3.35 0 1.7 0 0 Z " fill="#232223" transform="translate(40,69)"/>
<path d="M0 0 C0 3.73598788 -1.37334328 4.68387271 -3.76171875 7.375 C-5.52690053 9.69145306 -6.16489299 12.23772298 -7 15 C-7.99 15.495 -7.99 15.495 -9 16 C-9 15.34 -9 14.68 -9 14 C-9.66 14 -10.32 14 -11 14 C-11.33 14.99 -11.66 15.98 -12 17 C-14.31 17 -16.62 17 -19 17 C-16.19002621 14.08619346 -13.2558374 11.54730028 -10.0625 9.0625 C-6.46082592 6.21627307 -3.13739631 3.34655606 0 0 Z " fill="#F6DE57" transform="translate(161,101)"/>
<path d="M0 0 C0.66 0.33 1.32 0.66 2 1 C1.34 2.32 0.68 3.64 0 5 C-0.99 5 -1.98 5 -3 5 C-3 5.66 -3 6.32 -3 7 C-2.34 7.33 -1.68 7.66 -1 8 C-1 9.32 -1 10.64 -1 12 C-2.32 12 -3.64 12 -5 12 C-5 12.66 -5 13.32 -5 14 C-6.65 14 -8.3 14 -10 14 C-9.46823005 9.86186295 -7.22067834 7.72917682 -4.4375 4.75 C-3.61121094 3.85796875 -2.78492188 2.9659375 -1.93359375 2.046875 C-1.29550781 1.37140625 -0.65742188 0.6959375 0 0 Z " fill="#B93B37" transform="translate(186,174)"/>
<path d="M0 0 C0.66 0 1.32 0 2 0 C2.66 2.97 3.32 5.94 4 9 C4.66 9 5.32 9 6 9 C6.0825 9.763125 6.165 10.52625 6.25 11.3125 C7.14615794 14.52373261 8.21611025 15.29374499 11 17 C10.01 17.66 9.02 18.32 8 19 C7.41312216 22.34613512 7.41312216 22.34613512 7.3125 26.125 C7.24675781 27.40632813 7.18101562 28.68765625 7.11328125 30.0078125 C7.07589844 30.99523437 7.03851563 31.98265625 7 33 C6.67 33 6.34 33 6 33 C5.94392578 31.69289063 5.94392578 31.69289063 5.88671875 30.359375 C5.4133837 21.78365756 4.88228121 12.64147568 0.90234375 4.8515625 C0 3 0 3 0 0 Z " fill="#973638" transform="translate(229,64)"/>
<path d="M0 0 C-2.39205419 1.63080927 -4.78832782 3.25472186 -7.1875 4.875 C-7.86103516 5.33519531 -8.53457031 5.79539063 -9.22851562 6.26953125 C-12.72029983 8.62009818 -15.97897575 10.64144035 -20 12 C-19.67 11.01 -19.34 10.02 -19 9 C-18.01 9 -17.02 9 -16 9 C-15.8453125 8.13375 -15.8453125 8.13375 -15.6875 7.25 C-14.89103535 4.64338842 -13.80934723 3.0264689 -12 1 C-11.34 1 -10.68 1 -10 1 C-10 1.66 -10 2.32 -10 3 C-9.01 3 -8.02 3 -7 3 C-6.67 2.01 -6.34 1.02 -6 0 C-3 -1 -3 -1 0 0 Z " fill="#F2DD4F" transform="translate(108,160)"/>
<path d="M0 0 C0 0.66 0 1.32 0 2 C-1.72526042 2.94401042 -3.45052083 3.88802083 -5.17578125 4.83203125 C-7.04766221 5.91633565 -7.04766221 5.91633565 -8.375 7.53125 C-10.61754703 9.55816751 -12.77302764 9.96745389 -15.6875 10.6875 C-17.17830078 11.06455078 -17.17830078 11.06455078 -18.69921875 11.44921875 C-19.45847656 11.63097656 -20.21773438 11.81273437 -21 12 C-21 12.66 -21 13.32 -21 14 C-22.65 14 -24.3 14 -26 14 C-21.58474399 10.55559499 -16.7743828 7.99780528 -11.875 5.3125 C-10.95589844 4.80138672 -10.03679687 4.29027344 -9.08984375 3.76367188 C-8.21199219 3.28091797 -7.33414063 2.79816406 -6.4296875 2.30078125 C-5.62772949 1.85903564 -4.82577148 1.41729004 -3.99951172 0.9621582 C-2 0 -2 0 0 0 Z " fill="#EDDD63" transform="translate(106,141)"/>
<path d="M0 0 C1.32 0.33 2.64 0.66 4 1 C2.46356148 4.68069887 0.21849055 6.98775204 -2.625 9.75 C-3.85089844 10.94882813 -3.85089844 10.94882813 -5.1015625 12.171875 C-5.72804687 12.77515625 -6.35453125 13.3784375 -7 14 C-7.33 12.68 -7.66 11.36 -8 10 C-7.01 10 -6.02 10 -5 10 C-5.33 8.68 -5.66 7.36 -6 6 C-5.195625 5.38125 -4.39125 4.7625 -3.5625 4.125 C-0.96125481 2.25835959 -0.96125481 2.25835959 0 0 Z " fill="#F5DA50" transform="translate(183,130)"/>
<path d="M0 0 C4.54075781 4.14010271 7.71842138 8.82390176 11 14 C10.67 14.66 10.34 15.32 10 16 C7.48916886 14.74458443 7.12874554 13.49936512 6 11 C5.01 11.99 4.02 12.98 3 14 C3.33 12.68 3.66 11.36 4 10 C3.01 10 2.02 10 1 10 C1.020625 8.906875 1.04125 7.81375 1.0625 6.6875 C1.18544452 3.05615809 1.18544452 3.05615809 0 0 Z " fill="#AF3633" transform="translate(245,65)"/>
<path d="M0 0 C2.4375 1.5625 2.4375 1.5625 4 3 C3.34 3 2.68 3 2 3 C2.33 4.65 2.66 6.3 3 8 C-0.875 6.25 -0.875 6.25 -2 4 C-3.89533342 3.53476937 -3.89533342 3.53476937 -6.0625 3.375 C-7.361875 3.25125 -8.66125 3.1275 -10 3 C-9.67 2.01 -9.34 1.02 -9 0 C-5.84876177 -1.57561912 -3.37430208 -0.69813146 0 0 Z " fill="#F9DC38" transform="translate(165,21)"/>
<path d="M0 0 C2.31 0.66 4.62 1.32 7 2 C6.67 2.66 6.34 3.32 6 4 C8.64 4.33 11.28 4.66 14 5 C14 5.33 14 5.66 14 6 C13.18015625 6.00257812 12.3603125 6.00515625 11.515625 6.0078125 C8.24634619 6.12513112 5.20413301 6.32926816 2 7 C-0.72888443 9.75571763 -0.72888443 9.75571763 -2 13 C-2.66 13.66 -3.32 14.32 -4 15 C-4.99 14.67 -5.98 14.34 -7 14 C-6.34 13.38125 -5.68 12.7625 -5 12.125 C-2.7715451 10.24362573 -2.7715451 10.24362573 -3 8 C-2.34 8 -1.68 8 -1 8 C0.87543354 4.13236554 0.87543354 4.13236554 0 0 Z " fill="#1C1A1D" transform="translate(95,105)"/>
<path d="M0 0 C5.29520725 7.94281087 5.99391417 18.70625707 5 28 C4.34 29.32 3.68 30.64 3 32 C3 25.73 3 19.46 3 13 C2.34 13 1.68 13 1 13 C0.67 8.71 0.34 4.42 0 0 Z " fill="#EAD762" transform="translate(210,56)"/>
<path d="M0 0 C4.41274788 1.78186969 7.37588096 3.024814 10 7.125 C11 10 11 10 11 12 C10.01 12 9.02 12 8 12 C7.71125 11.030625 7.4225 10.06125 7.125 9.0625 C6.35785318 5.89335797 6.35785318 5.89335797 4 5 C4.33 5.99 4.66 6.98 5 8 C4.34 8.66 3.68 9.32 3 10 C0.59185923 6.48812804 -0.36629408 4.27343092 0 0 Z " fill="#F5EE27" transform="translate(106,52)"/>
<path d="M0 0 C0.33 0.99 0.66 1.98 1 3 C-0.65234375 5.69921875 -0.65234375 5.69921875 -2.9375 8.6875 C-3.68902344 9.68136719 -4.44054687 10.67523438 -5.21484375 11.69921875 C-5.80394531 12.45847656 -6.39304688 13.21773437 -7 14 C-7 13.01 -7 12.02 -7 11 C-7.33 10.01 -7.66 9.02 -8 8 C-8.66 8 -9.32 8 -10 8 C-9.67 6.35 -9.34 4.7 -9 3 C-6.69 3.33 -4.38 3.66 -2 4 C-1.34 2.68 -0.68 1.36 0 0 Z " fill="#2B2D7A" transform="translate(165,77)"/>
<path d="M0 0 C0.95465783 2.16967689 1.14401212 3.56328793 0.3984375 5.82421875 C-0.35870385 7.5684743 -1.17609198 9.28627131 -2 11 C-4.97 10.505 -4.97 10.505 -8 10 C-7.34 8.02 -6.68 6.04 -6 4 C-4.68 4.33 -3.36 4.66 -2 5 C-2.33 3.68 -2.66 2.36 -3 1 C-2.01 0.67 -1.02 0.34 0 0 Z " fill="#3C3730" transform="translate(113,100)"/>
<path d="M0 0 C3.71599191 -0.20086443 4.77208445 -0.1519437 8 2 C8 2.66 8 3.32 8 4 C8.66 4 9.32 4 10 4 C10 4.66 10 5.32 10 6 C10.66 6 11.32 6 12 6 C12 7.32 12 8.64 12 10 C10.68 9.67 9.36 9.34 8 9 C8 8.01 8 7.02 8 6 C7.4225 5.938125 6.845 5.87625 6.25 5.8125 C3.11309013 4.67972699 1.90832496 2.65802405 0 0 Z " fill="#BD3F37" transform="translate(213,43)"/>
<path d="M0 0 C0.66 0.33 1.32 0.66 2 1 C1.505 1.61875 1.01 2.2375 0.5 2.875 C-1.19222773 4.83880904 -1.19222773 4.83880904 -1 7 C-4.3 7.33 -7.6 7.66 -11 8 C-10 5 -10 5 -7.78515625 3.578125 C-6.88667969 3.13984375 -5.98820313 2.7015625 -5.0625 2.25 C-4.16660156 1.80140625 -3.27070313 1.3528125 -2.34765625 0.890625 C-1.18556641 0.44976562 -1.18556641 0.44976562 0 0 Z " fill="#F1D958" transform="translate(17,184)"/>
<path d="M0 0 C0.66 0.33 1.32 0.66 2 1 C1.67 2.65 1.34 4.3 1 6 C-3.99367864 6.7282448 -8.99109914 7.38487182 -14 8 C-11.10181338 5.70841058 -8.16859456 3.92137634 -4.875 2.25 C-4.00617187 1.80140625 -3.13734375 1.3528125 -2.2421875 0.890625 C-1.50226563 0.59671875 -0.76234375 0.3028125 0 0 Z " fill="#EFDB54" transform="translate(68,160)"/>
<path d="M0 0 C0 1.65 0 3.3 0 5 C-1.32 5.33 -2.64 5.66 -4 6 C-4 7.32 -4 8.64 -4 10 C-5.875 10.625 -5.875 10.625 -8 11 C-8.66 10.34 -9.32 9.68 -10 9 C-3 0 -3 0 0 0 Z " fill="#F9F011" transform="translate(111,114)"/>
<path d="M0 0 C1.66611905 -0.042721 3.33382885 -0.04063832 5 0 C5.33 0.33 5.66 0.66 6 1 C7.66617115 1.04063832 9.33388095 1.042721 11 1 C10.38125 1.061875 9.7625 1.12375 9.125 1.1875 C8.073125 1.5896875 8.073125 1.5896875 7 2 C6.28752268 3.6476038 5.62599617 5.31763529 5 7 C2.875 9.3125 2.875 9.3125 1 11 C0.375 9.1875 0.375 9.1875 0 7 C0.66 6.01 1.32 5.02 2 4 C1.34 3.67 0.68 3.34 0 3 C0 2.01 0 1.02 0 0 Z " fill="#F3DA4B" transform="translate(182,88)"/>
<path d="M0 0 C4.20768944 0.91857603 7.69567846 2.87090257 11.4375 4.9375 C15.5566325 7.20160528 19.5759719 9.37188947 24 11 C22.375 11.6875 22.375 11.6875 20 12 C17.99152635 11.01712992 15.99180409 10.01622658 14 9 C11.24853726 8.74715633 11.24853726 8.74715633 9 9 C8.7215625 8.13375 8.7215625 8.13375 8.4375 7.25 C6.29448878 3.89572157 3.51177437 2.82092004 0 1 C0 0.67 0 0.34 0 0 Z " fill="#1E1C1D" transform="translate(47,62)"/>
<path d="M0 0 C2.64 0 5.28 0 8 0 C3.73412126 4.54109672 -1.03612328 8.24735246 -6 12 C-6.66 11.67 -7.32 11.34 -8 11 C-7.67 10.34 -7.34 9.68 -7 9 C-6.34 9 -5.68 9 -5 9 C-5 8.34 -5 7.68 -5 7 C-0.61538462 4 -0.61538462 4 2 4 C2 3.34 2 2.68 2 2 C1.34 2 0.68 2 0 2 C0 1.34 0 0.68 0 0 Z " fill="#EFDA52" transform="translate(141,168)"/>
<path d="M0 0 C1.32 0.33 2.64 0.66 4 1 C2.19047409 2.83635578 0.37759362 4.66916208 -1.4375 6.5 C-1.95376953 7.02464844 -2.47003906 7.54929688 -3.00195312 8.08984375 C-4.31576787 9.41224552 -5.65593505 10.70835568 -7 12 C-7.33 12 -7.66 12 -8 12 C-8 10.35 -8 8.7 -8 7 C-7.34 7 -6.68 7 -6 7 C-5.34 5.68 -4.68 4.36 -4 3 C-3.01 3 -2.02 3 -1 3 C-0.67 2.01 -0.34 1.02 0 0 Z " fill="#F0D84C" transform="translate(170,145)"/>
<path d="M0 0 C5.21202675 2.52704327 8.3880132 6.61773359 12 11 C11.67 11.66 11.34 12.32 11 13 C10.34 12.34 9.68 11.68 9 11 C6.42938689 10.35232207 6.42938689 10.35232207 4 10 C4 9.01 4 8.02 4 7 C3.34 7 2.68 7 2 7 C2 5.68 2 4.36 2 3 C1.34 2.67 0.68 2.34 0 2 C0 1.34 0 0.68 0 0 Z " fill="#F6DB50" transform="translate(194,37)"/>
<path d="M0 0 C4.51478398 0.53115106 7.34666857 2.36620292 11 5 C9.875 6.5 9.875 6.5 8 8 C4.8125 8.1875 4.8125 8.1875 2 8 C1.67 7.34 1.34 6.68 1 6 C1.66 5.34 2.32 4.68 3 4 C2.01 2.68 1.02 1.36 0 0 Z " fill="#30327B" transform="translate(129,16)"/>
<path d="M0 0 C1.98 0.495 1.98 0.495 4 1 C3.690625 1.825 3.38125 2.65 3.0625 3.5 C1.88122417 7.39126155 1.41775832 10.96166953 1 15 C0.34 15 -0.32 15 -1 15 C-1.02703381 13.06257659 -1.04641125 11.12504521 -1.0625 9.1875 C-1.07410156 8.10855469 -1.08570313 7.02960937 -1.09765625 5.91796875 C-1 3 -1 3 0 0 Z " fill="#F1EB35" transform="translate(7,32)"/>
<path d="M0 0 C1.58467728 0.28427417 3.1677057 0.57774818 4.75 0.875 C6.07257813 1.11863281 6.07257813 1.11863281 7.421875 1.3671875 C9.86947744 1.96796264 11.80599857 2.77997117 14 4 C12.35 4.33 10.7 4.66 9 5 C9.33 5.66 9.66 6.32 10 7 C6.51329166 5.8905928 3.22515763 4.73662334 0 3 C0 2.01 0 1.02 0 0 Z " fill="#F3E26C" transform="translate(141,14)"/>
<path d="M0 0 C1.875 0.5 1.875 0.5 4 2 C5.68739264 5.91475092 6.66956113 8.22367573 5.14453125 12.26953125 C1.97890079 17.67545404 1.97890079 17.67545404 -1.1796875 18.72265625 C-1.78039062 18.81417969 -2.38109375 18.90570313 -3 19 C-2.360625 18.21625 -1.72125 17.4325 -1.0625 16.625 C2.1665908 12.51524807 2.26602955 10.23191447 2 5 C1.1025173 2.16621868 1.1025173 2.16621868 0 0 Z " fill="#222022" transform="translate(88,96)"/>
<path d="M0 0 C0.99 0.33 1.98 0.66 3 1 C-0.5463981 5.51359758 -5.59815311 7.46602606 -11 9 C-11.66 8.67 -12.32 8.34 -13 8 C-10.90320896 6.63304778 -8.7989062 5.28153009 -6.6875 3.9375 C-6.09259766 3.54755859 -5.49769531 3.15761719 -4.88476562 2.75585938 C-3.30390365 1.75788505 -1.65405288 0.87131304 0 0 Z " fill="#F0DC5B" transform="translate(119,132)"/>
<path d="M0 0 C0.66 0.66 1.32 1.32 2 2 C1.46428571 5.53571429 1.46428571 5.53571429 0 7 C-0.07148199 8.35243917 -0.08399454 9.70834367 -0.0625 11.0625 C-0.041875 12.361875 -0.02125 13.66125 0 15 C-0.99 15.495 -0.99 15.495 -2 16 C-2.66 11.71 -3.32 7.42 -4 3 C-3.01 3 -2.02 3 -1 3 C-0.67 2.01 -0.34 1.02 0 0 Z " fill="#EBE52F" transform="translate(117,68)"/>
<path d="M0 0 C4.95 2.31 9.9 4.62 15 7 C10.5 8.125 10.5 8.125 7.109375 6.78515625 C6.40039062 6.51123047 5.69140625 6.23730469 4.9609375 5.95507812 C4.23132813 5.66052734 3.50171875 5.36597656 2.75 5.0625 C2.00492187 4.77181641 1.25984375 4.48113281 0.4921875 4.18164062 C-1.34241814 3.46426278 -3.17175065 2.73342561 -5 2 C-4.360625 1.855625 -3.72125 1.71125 -3.0625 1.5625 C-1.02454854 1.18992819 -1.02454854 1.18992819 0 0 Z " fill="#282867" transform="translate(83,17)"/>
<path d="M0 0 C2.31 0.33 4.62 0.66 7 1 C7.33 1.99 7.66 2.98 8 4 C8.99 4.33 9.98 4.66 11 5 C11 6.32 11 7.64 11 9 C10.01 9 9.02 9 8 9 C8 8.01 8 7.02 8 6 C6.68 6 5.36 6 4 6 C3.896875 5.360625 3.79375 4.72125 3.6875 4.0625 C3.460625 3.381875 3.23375 2.70125 3 2 C2.01 1.67 1.02 1.34 0 1 C0 0.67 0 0.34 0 0 Z " fill="#FCF111" transform="translate(94,44)"/>
<path d="M0 0 C6.88490225 -0.57374185 11.02667877 0.5246131 17 4 C16.01 4.33 15.02 4.66 14 5 C13.4225 4.67 12.845 4.34 12.25 4 C9.00117269 2.55607675 6.44657824 3.43601447 3 4 C2.01 3.67 1.02 3.34 0 3 C0 2.01 0 1.02 0 0 Z " fill="#31337C" transform="translate(110,10)"/>
<path d="M0 0 C0.66 0 1.32 0 2 0 C2 7.59 2 15.18 2 23 C1.34 23 0.68 23 0 23 C0.01160156 21.81921875 0.02320313 20.6384375 0.03515625 19.421875 C0.04453752 17.86458492 0.05363736 16.30729312 0.0625 14.75 C0.07087891 13.97269531 0.07925781 13.19539063 0.08789062 12.39453125 C0.09111328 11.64042969 0.09433594 10.88632813 0.09765625 10.109375 C0.10289307 9.41811523 0.10812988 8.72685547 0.11352539 8.01464844 C0.06598148 5.95780304 0.06598148 5.95780304 -0.56860352 3.86816406 C-1 2 -1 2 0 0 Z " fill="#FAEF20" transform="translate(11,111)"/>
<path d="M0 0 C4.95 0 9.9 0 15 0 C15.33 0.66 15.66 1.32 16 2 C11.17247654 3.24581251 4.59543291 4.29771645 0 2 C0 1.34 0 0.68 0 0 Z " fill="#F4ED26" transform="translate(58,32)"/>
<path d="M0 0 C0.66 0.33 1.32 0.66 2 1 C1 4 1 4 -1.75 5.8125 C-5.3584411 8.24125843 -7.36142936 10.58537918 -10 14 C-10.99 13.67 -11.98 13.34 -13 13 C-8.71 8.71 -4.42 4.42 0 0 Z " fill="#993437" transform="translate(201,160)"/>
<path d="M0 0 C0.99 0.33 1.98 0.66 3 1 C2.34 6.61 1.68 12.22 1 18 C0.01 17.67 -0.98 17.34 -2 17 C-1.76990234 16.21882813 -1.76990234 16.21882813 -1.53515625 15.421875 C-0.86017489 12.36721485 -0.65588882 9.36984029 -0.4375 6.25 C-0.35371094 5.07953125 -0.26992187 3.9090625 -0.18359375 2.703125 C-0.12300781 1.81109375 -0.06242187 0.9190625 0 0 Z " fill="#E3DD3A" transform="translate(116,85)"/>
<path d="M0 0 C1.18334564 3.55003693 0.79896199 4.06304713 -0.75 7.3125 C-1.12125 8.10140625 -1.4925 8.8903125 -1.875 9.703125 C-4.63636364 15.34090909 -4.63636364 15.34090909 -6 18 C-6.33 18 -6.66 18 -7 18 C-7 16.35 -7 14.7 -7 13 C-6.34 13 -5.68 13 -5 13 C-5 11.35 -5 9.7 -5 8 C-4.34 8 -3.68 8 -3 8 C-2.690625 6.865625 -2.38125 5.73125 -2.0625 4.5625 C-1 1 -1 1 0 0 Z " fill="#EEDD64" transform="translate(212,88)"/>
<path d="M0 0 C0.99 0.33 1.98 0.66 3 1 C-0.86364295 5.48717034 -4.74790208 9.87675353 -9 14 C-9.66 13.67 -10.32 13.34 -11 13 C-10.319375 12.38125 -10.319375 12.38125 -9.625 11.75 C-7.9077669 10.08564502 -7.9077669 10.08564502 -7.0625 7.9375 C-5.73259971 5.5123877 -4.42525602 5.21262801 -2 4 C-0.73195434 1.9664052 -0.73195434 1.9664052 0 0 Z " fill="#973234" transform="translate(239,171)"/>
<path d="M0 0 C0 3.77910478 -0.99703962 4.46106101 -3.5 7.1875 C-4.1496875 7.90292969 -4.799375 8.61835938 -5.46875 9.35546875 C-5.9740625 9.89816406 -6.479375 10.44085938 -7 11 C-7.66 10.01 -8.32 9.02 -9 8 C-8.07038578 6.84775972 -7.1309875 5.70340824 -6.1875 4.5625 C-5.66542969 3.92441406 -5.14335937 3.28632812 -4.60546875 2.62890625 C-3 1 -3 1 0 0 Z " fill="#F1DA52" transform="translate(195,120)"/>
<path d="M0 0 C0.66 0.33 1.32 0.66 2 1 C-0.59385209 4.02616077 -3.26753247 5.61760462 -7 7 C-10.05953759 6.9550068 -12.99394217 6.55445067 -16 6 C-16 5.67 -16 5.34 -16 5 C-15.18015625 4.80664062 -14.3603125 4.61328125 -13.515625 4.4140625 C-12.43796875 4.15367187 -11.3603125 3.89328125 -10.25 3.625 C-8.64898437 3.24214844 -8.64898437 3.24214844 -7.015625 2.8515625 C-4.05597899 2.12330461 -4.05597899 2.12330461 -1.734375 0.8359375 C-1.16203125 0.56007812 -0.5896875 0.28421875 0 0 Z " fill="#F5EA45" transform="translate(89,129)"/>
<path d="M0 0 C2.9719385 1.12451727 5.33440687 2.22293791 8 4 C8 4.66 8 5.32 8 6 C8.61875 6.268125 9.2375 6.53625 9.875 6.8125 C12 8 12 8 14 11 C13.46375 10.71125 12.9275 10.4225 12.375 10.125 C9.92449903 8.88011094 9.92449903 8.88011094 6.8125 8.125 C5.884375 7.75375 4.95625 7.3825 4 7 C3.3125 5.0625 3.3125 5.0625 3 3 C1.52109931 1.26973898 1.52109931 1.26973898 0 0 Z " fill="#F2EE4B" transform="translate(96,41)"/>
<path d="M0 0 C3.1875 -0.5 3.1875 -0.5 7 0 C9.15024236 2.42700622 10.59103494 5.09116891 12 8 C9.14940657 6.61964507 6.44119096 5.10703513 3.75 3.4375 C3.04359375 3.00308594 2.3371875 2.56867187 1.609375 2.12109375 C1.07828125 1.75113281 0.5471875 1.38117187 0 1 C0 0.67 0 0.34 0 0 Z " fill="#F5DF55" transform="translate(156,24)"/>
<path d="M0 0 C-0.78246094 0.42152344 -1.56492187 0.84304687 -2.37109375 1.27734375 C-3.38300781 1.82519531 -4.39492188 2.37304688 -5.4375 2.9375 C-6.44683594 3.48277344 -7.45617187 4.02804688 -8.49609375 4.58984375 C-10.86670493 5.77699468 -10.86670493 5.77699468 -12 7 C-13.99958364 7.04080783 -16.00045254 7.04254356 -18 7 C-14.98568679 4.57714777 -11.94482561 2.87243634 -8.4375 1.25 C-7.01244141 0.57710937 -7.01244141 0.57710937 -5.55859375 -0.109375 C-3 -1 -3 -1 0 0 Z " fill="#F1DE6F" transform="translate(48,172)"/>
<path d="M0 0 C0.51046875 0.49113281 1.0209375 0.98226562 1.546875 1.48828125 C4.89448982 3.55122223 7.35209972 3.29577501 11.25 3.1875 C12.51328125 3.16042969 13.7765625 3.13335937 15.078125 3.10546875 C16.04234375 3.07066406 17.0065625 3.03585938 18 3 C17.67 3.66 17.34 4.32 17 5 C10.27511367 6.74348905 5.19544849 5.86826319 -1 3 C-0.67 2.01 -0.34 1.02 0 0 Z " fill="#131315" transform="translate(70,117)"/>
<path d="M0 0 C2.33936818 2.12669835 3.80653848 4.06224856 5 7 C5 7.99 5 8.98 5 10 C3.66666667 10.66666667 2.33333333 11.33333333 1 12 C-0.2077558 8.37673261 0.45688872 7.35853631 2 4 C1.01 3.67 0.02 3.34 -1 3 C-0.67 2.01 -0.34 1.02 0 0 Z " fill="#2B2E77" transform="translate(163,42)"/>
<path d="M0 0 C1.41655793 -0.0272415 2.83327045 -0.04650467 4.25 -0.0625 C5.43335938 -0.07990234 5.43335938 -0.07990234 6.640625 -0.09765625 C8.90691002 -0.00385306 10.8288895 0.36758937 13 1 C13 1.66 13 2.32 13 3 C14.65 3 16.3 3 18 3 C17.34 3.66 16.68 4.32 16 5 C13.21109924 4.48703094 10.59694619 3.88187968 7.875 3.125 C7.12089844 2.92519531 6.36679688 2.72539063 5.58984375 2.51953125 C3.72375048 2.02348114 1.86148451 1.51307432 0 1 C0 0.67 0 0.34 0 0 Z " fill="#1B1E5D" transform="translate(0,0)"/>
<path d="M0 0 C-0.33 1.65 -0.66 3.3 -1 5 C-1.99 5 -2.98 5 -4 5 C-6.00309329 5.31421071 -8.00371336 5.6451046 -10 6 C-10 4.68 -10 3.36 -10 2 C-7.525 2.99 -7.525 2.99 -5 4 C-5.33 3.01 -5.66 2.02 -6 1 C-4 0 -4 0 0 0 Z " fill="#3B393B" transform="translate(66,104)"/>
<path d="M0 0 C0.33 0.99 0.66 1.98 1 3 C0.154375 2.649375 -0.69125 2.29875 -1.5625 1.9375 C-6.61662278 0.55910288 -11.03553343 1.60994936 -16 3 C-13.67932564 -0.48101154 -12.10346967 -0.90737002 -8.10546875 -1.78125 C-4.95907171 -2.10814839 -2.78732698 -1.42765528 0 0 Z " fill="#201E20" transform="translate(87,93)"/>
<path d="M0 0 C3.71421404 4.59855071 6.53603697 8.92491435 6 15 C5.34 13.68 4.68 12.36 4 11 C3.01 11.495 3.01 11.495 2 12 C1.66269158 10.56342755 1.33030409 9.12569907 1 7.6875 C0.814375 6.88699219 0.62875 6.08648437 0.4375 5.26171875 C0 3 0 3 0 0 Z " fill="#9F3132" transform="translate(256,81)"/>
<path d="M0 0 C-0.99 0.495 -0.99 0.495 -2 1 C-2 1.99 -2 2.98 -2 4 C-2.763125 3.814375 -3.52625 3.62875 -4.3125 3.4375 C-7.08967375 2.77180827 -7.08967375 2.77180827 -10 4 C-9.64920302 1.36902268 -9.37396084 0.29382638 -7.25 -1.375 C-4.23702475 -2.21193757 -2.73658813 -1.36829407 0 0 Z " fill="#3D3C3D" transform="translate(52,65)"/>
<path d="M0 0 C1.32 0.99 2.64 1.98 4 3 C3.01 3.66 2.02 4.32 1 5 C0.41312216 8.34613512 0.41312216 8.34613512 0.3125 12.125 C0.24675781 13.40632813 0.18101562 14.68765625 0.11328125 16.0078125 C0.07589844 16.99523437 0.03851563 17.98265625 0 19 C-0.33 19 -0.66 19 -1 19 C-1.02690104 16.20826945 -1.04679053 13.41679652 -1.0625 10.625 C-1.07087891 9.8309375 -1.07925781 9.036875 -1.08789062 8.21875 C-1.11328125 2.2265625 -1.11328125 2.2265625 0 0 Z " fill="#A0332E" transform="translate(236,78)"/>
<path d="M0 0 C6.80203375 -0.37634203 11.75690073 0.22528921 18 3 C18 3.33 18 3.66 18 4 C11.85845775 3.41509121 5.99320151 2.45933748 0 1 C0 0.67 0 0.34 0 0 Z " fill="#23255E" transform="translate(53,12)"/>
<path d="M0 0 C0 1.65 0 3.3 0 5 C-3.63 5 -7.26 5 -11 5 C-8.12934225 2.12934225 -4.13678472 0 0 0 Z " fill="#F0DC5C" transform="translate(30,179)"/>
<path d="M0 0 C0 3.80345877 -1.13786331 4.77701015 -3.5 7.6875 C-4.1496875 8.49574219 -4.799375 9.30398437 -5.46875 10.13671875 C-5.9740625 10.75160156 -6.479375 11.36648437 -7 12 C-7.66 11.34 -8.32 10.68 -9 10 C-7 7 -7 7 -5 6 C-4.34 5.01 -3.68 4.02 -3 3 C-2.01904252 1.98131338 -1.02297922 0.97648017 0 0 Z " fill="#9C3030" transform="translate(250,159)"/>
<path d="M0 0 C0.66 0.33 1.32 0.66 2 1 C0.78521149 2.18163051 -0.44752408 3.34482835 -1.6875 4.5 C-2.37199219 5.1496875 -3.05648437 5.799375 -3.76171875 6.46875 C-6.40656372 8.27813784 -7.86162389 8.3077917 -11 8 C-11 7.01 -11 6.02 -11 5 C-10.34 5.33 -9.68 5.66 -9 6 C-6.03 4.02 -3.06 2.04 0 0 Z " fill="#F1DB5A" transform="translate(154,137)"/>
<path d="M0 0 C2 3 2 3 1.3125 6.625 C0.6628125 8.295625 0.6628125 8.295625 0 10 C-0.99 10.33 -1.98 10.66 -3 11 C-2.67 9.68 -2.34 8.36 -2 7 C-2.66 6.67 -3.32 6.34 -4 6 C-3.34 6 -2.68 6 -2 6 C-2 5.34 -2 4.68 -2 4 C-1.34 4 -0.68 4 0 4 C0 2.68 0 1.36 0 0 Z " fill="#F9EF17" transform="translate(115,104)"/>
<path d="M0 0 C0.99 0.495 0.99 0.495 2 1 C2.6328125 3.50390625 2.6328125 3.50390625 3.125 6.5625 C3.29257812 7.57441406 3.46015625 8.58632812 3.6328125 9.62890625 C3.75398438 10.41136719 3.87515625 11.19382812 4 12 C2.66666667 12 1.33333333 12 0 12 C0 8.04 0 4.08 0 0 Z " fill="#B43233" transform="translate(259,91)"/>
<path d="M0 0 C0.33 0.66 0.66 1.32 1 2 C-0.36328125 4.56640625 -0.36328125 4.56640625 -2.3125 7.5625 C-3.26576172 9.04943359 -3.26576172 9.04943359 -4.23828125 10.56640625 C-6 13 -6 13 -8 14 C-6.58036591 8.32146365 -3.60636039 4.46825784 0 0 Z " fill="#ECDD6A" transform="translate(204,106)"/>
<path d="M0 0 C0.66 0.99 1.32 1.98 2 3 C1.34 3 0.68 3 0 3 C-0.33 3.99 -0.66 4.98 -1 6 C-1.99 6.33 -2.98 6.66 -4 7 C-4 7.66 -4 8.32 -4 9 C-4.66 9 -5.32 9 -6 9 C-4.25 3.25 -4.25 3.25 -2 1 C-1.34 1.33 -0.68 1.66 0 2 C0 1.34 0 0.68 0 0 Z " fill="#EEE631" transform="translate(117,101)"/>
<path d="M0 0 C3.96 0 7.92 0 12 0 C12.33 1.32 12.66 2.64 13 4 C8.71 3.01 4.42 2.02 0 1 C0 0.67 0 0.34 0 0 Z " fill="#F2EE36" transform="translate(71,38)"/>
<path d="M0 0 C0.66 0.33 1.32 0.66 2 1 C1.38125 1.2475 0.7625 1.495 0.125 1.75 C-2.35068687 3.20628639 -2.95125002 4.37812506 -4 7 C-5.65 7 -7.3 7 -9 7 C-6.25604436 4.05278838 -3.61662784 1.80831392 0 0 Z " fill="#EEDC59" transform="translate(109,166)"/>
<path d="M0 0 C0.99 0.33 1.98 0.66 3 1 C3 1.66 3 2.32 3 3 C3.99 3.33 4.98 3.66 6 4 C3.35261084 5.4606285 2.10551666 6 -1 6 C-1.33 5.34 -1.66 4.68 -2 4 C-1.34 4 -0.68 4 0 4 C0 2.68 0 1.36 0 0 Z " fill="#2D2D2F" transform="translate(68,112)"/>
<path d="M0 0 C1.485 0.99 1.485 0.99 3 2 C2.67 1.34 2.34 0.68 2 0 C3.32 0.66 4.64 1.32 6 2 C6 2.66 6 3.32 6 4 C4.37373596 5.38232443 2.7074998 6.71937515 1 8 C0.26919734 6.02253397 -0.39421747 4.01927511 -1 2 C-0.67 1.34 -0.34 0.68 0 0 Z " fill="#C2423E" transform="translate(241,68)"/>
<path d="M0 0 C2.475 0.99 2.475 0.99 5 2 C4.67 3.65 4.34 5.3 4 7 C3.01 6.67 2.02 6.34 1 6 C-0.1875 3.4375 -0.1875 3.4375 -1 1 C-0.67 0.67 -0.34 0.34 0 0 Z " fill="#2C2B2C" transform="translate(42,59)"/>
<path d="M0 0 C4.50802601 1.25805377 7.4912812 2.90407165 11 6 C9.234375 6.6796875 9.234375 6.6796875 7 7 C5.078125 5.8203125 5.078125 5.8203125 3.25 4.125 C2.63640625 3.57070313 2.0228125 3.01640625 1.390625 2.4453125 C0 1 0 1 0 0 Z " fill="#7D3530" transform="translate(196,30)"/>
<path d="M0 0 C0.66 0.33 1.32 0.66 2 1 C0.35 2.65 -1.3 4.3 -3 6 C-2.67 6.66 -2.34 7.32 -2 8 C-4.31 8.33 -6.62 8.66 -9 9 C-6 6 -3 3 0 0 Z " fill="#863034" transform="translate(177,182)"/>
<path d="M0 0 C0.99 0.33 1.98 0.66 3 1 C2.84518205 3.70931419 2.51827919 5.46584039 0.59765625 7.4453125 C-0.89771708 8.67679642 -2.4462924 9.8429837 -4 11 C-4.66 10.67 -5.32 10.34 -6 10 C-3.69 7.69 -1.38 5.38 1 3 C0.67 2.01 0.34 1.02 0 0 Z " fill="#EFDD63" transform="translate(162,126)"/>
<path d="M0 0 C0.12375 0.5775 0.2475 1.155 0.375 1.75 C1.00648824 4.02335767 1.88858191 5.9253529 3 8 C2.01 8 1.02 8 0 8 C0.33 8.66 0.66 9.32 1 10 C0.01 9.67 -0.98 9.34 -2 9 C-2 7.02 -2 5.04 -2 3 C-1.34 3 -0.68 3 0 3 C0 2.01 0 1.02 0 0 Z " fill="#3B3B92" transform="translate(156,69)"/>
<path d="M0 0 C2.96404505 2.80804268 5.44499019 5.18315774 7 9 C6.01 8.34 5.02 7.68 4 7 C3.01 7.99 2.02 8.98 1 10 C1.020625 8.906875 1.04125 7.81375 1.0625 6.6875 C1.18544452 3.05615809 1.18544452 3.05615809 0 0 Z " fill="#9A322F" transform="translate(245,65)"/>
<path d="M0 0 C2.31 1.98 4.62 3.96 7 6 C4.12862585 6 1.7696959 5.72886734 -1 5 C-1.33 4.34 -1.66 3.68 -2 3 C-1.34 3 -0.68 3 0 3 C0 2.01 0 1.02 0 0 Z " fill="#A43433" transform="translate(237,57)"/>
<path d="M0 0 C2.92090003 1.30936898 4.75619462 2.75619462 7 5 C7.99 5.33 8.98 5.66 10 6 C10.33 6.99 10.66 7.98 11 9 C8 9 8 9 5.95703125 7.28515625 C5.24933594 6.55167969 4.54164063 5.81820312 3.8125 5.0625 C3.09707031 4.33160156 2.38164062 3.60070313 1.64453125 2.84765625 C0 1 0 1 0 0 Z " fill="#8E312A" transform="translate(211,43)"/>
<path d="M0 0 C2 3 2 3 2 6 C0.625 7.6875 0.625 7.6875 -1 9 C-1.66 9 -2.32 9 -3 9 C-2.01 6.03 -1.02 3.06 0 0 Z " fill="#161544" transform="translate(148,96)"/>
<path d="M0 0 C2 1 2 1 3 3 C2.01 4.485 2.01 4.485 1 6 C-2.875 4.25 -2.875 4.25 -4 2 C-2.125 0.9375 -2.125 0.9375 0 0 Z " fill="#393B8F" transform="translate(162,76)"/>
<path d="M0 0 C3 1 3 1 4.1875 3.0625 C4.455625 3.701875 4.72375 4.34125 5 5 C3.824375 4.9690625 3.824375 4.9690625 2.625 4.9375 C0.01885039 4.81315937 0.01885039 4.81315937 -2 6 C-2.33 4.68 -2.66 3.36 -3 2 C-2.34 2 -1.68 2 -1 2 C-0.67 1.34 -0.34 0.68 0 0 Z " fill="#BF4341" transform="translate(229,51)"/>
<path d="M0 0 C2.64 0 5.28 0 8 0 C6.02579865 2.52259061 5.03254358 2.9929808 1.8125 3.6875 C0.4203125 3.8421875 0.4203125 3.8421875 -1 4 C-0.67 2.68 -0.34 1.36 0 0 Z " fill="#F2DA4D" transform="translate(116,186)"/>
<path d="M0 0 C-1.32 1.65 -2.64 3.3 -4 5 C-4.99 4.67 -5.98 4.34 -7 4 C-7 3.01 -7 2.02 -7 1 C-4.53721199 -0.231394 -2.7204945 -0.07159196 0 0 Z " fill="#A53630" transform="translate(228,185)"/>
<path d="M0 0 C0 0.33 0 0.66 0 1 C-3.3 1.33 -6.6 1.66 -10 2 C-9.67 1.01 -9.34 0.02 -9 -1 C-5.79937313 -2.60031344 -3.27728194 -1.03173691 0 0 Z " fill="#E8D36A" transform="translate(16,190)"/>
<path d="M0 0 C2.97 0.495 2.97 0.495 6 1 C1.375 5 1.375 5 -2 5 C-2 4.34 -2 3.68 -2 3 C-1.34 2.67 -0.68 2.34 0 2 C0 1.34 0 0.68 0 0 Z " fill="#F4D949" transform="translate(126,180)"/>
<path d="M0 0 C0.66 0.33 1.32 0.66 2 1 C0.55609075 4.80666984 -1.34952803 6.26602582 -5 8 C-5.66 7.67 -6.32 7.34 -7 7 C-4.69 4.69 -2.38 2.38 0 0 Z " fill="#8B312C" transform="translate(186,174)"/>
<path d="M0 0 C-1.875 3.875 -1.875 3.875 -3 5 C-4.66617115 5.04063832 -6.33388095 5.042721 -8 5 C-3.16129032 0 -3.16129032 0 0 0 Z " fill="#F1DC56" transform="translate(100,173)"/>
<path d="M0 0 C2.97 0.495 2.97 0.495 6 1 C4.35 2.65 2.7 4.3 1 6 C0.67 4.02 0.34 2.04 0 0 Z " fill="#F7DD48" transform="translate(148,162)"/>
<path d="M0 0 C1.65 0 3.3 0 5 0 C5.625 2.375 5.625 2.375 6 5 C5.34 5.66 4.68 6.32 4 7 C2.02 3.535 2.02 3.535 0 0 Z " fill="#F2DE53" transform="translate(176,41)"/>
<path d="M0 0 C-0.33 1.32 -0.66 2.64 -1 4 C-3.31 4 -5.62 4 -8 4 C-4.5 0 -4.5 0 0 0 Z " fill="#EFDB4C" transform="translate(150,114)"/>
<path d="M0 0 C1.32 0 2.64 0 4 0 C6.25 3 6.25 3 8 6 C7.67 6.66 7.34 7.32 7 8 C5.83035398 6.8572081 4.66435444 5.71068285 3.5 4.5625 C2.8503125 3.92441406 2.200625 3.28632812 1.53125 2.62890625 C0 1 0 1 0 0 Z " fill="#F0D957" transform="translate(168,32)"/>
<path d="M0 0 C2.31 0.66 4.62 1.32 7 2 C6.67 2.99 6.34 3.98 6 5 C5.67 4.34 5.34 3.68 5 3 C3.68 3.33 2.36 3.66 1 4 C0.67 2.68 0.34 1.36 0 0 Z " fill="#B53A30" transform="translate(225,177)"/>
<path d="M0 0 C0.33 0.99 0.66 1.98 1 3 C-2 5 -2 5 -6 5 C-6 4.34 -6 3.68 -6 3 C-6.99 2.67 -7.98 2.34 -9 2 C-7.329375 2.061875 -7.329375 2.061875 -5.625 2.125 C-1.95633975 2.41121859 -1.95633975 2.41121859 0 0 Z " fill="#C2433C" transform="translate(233,174)"/>
<path d="M0 0 C2.31 1.65 4.62 3.3 7 5 C6.34 6.32 5.68 7.64 5 9 C4.16094435 7.87926138 3.32892169 6.75325453 2.5 5.625 C2.0359375 4.99851562 1.571875 4.37203125 1.09375 3.7265625 C0 2 0 2 0 0 Z " fill="#943131" transform="translate(223,55)"/>
<path d="M0 0 C2.1875 0.3125 2.1875 0.3125 4 1 C2.75 2.5625 2.75 2.5625 1 4 C-1.1875 3.6875 -1.1875 3.6875 -3 3 C-1.75 1.4375 -1.75 1.4375 0 0 Z " fill="#F2DC51" transform="translate(95,146)"/>
<path d="M0 0 C0.6875 1.75 0.6875 1.75 1 4 C-0.4375 6.25 -0.4375 6.25 -2 8 C-2.33 5.69 -2.66 3.38 -3 1 C-2.01 0.67 -1.02 0.34 0 0 Z " fill="#3C3B11" transform="translate(113,100)"/>
<path d="M0 0 C0.99 0.33 1.98 0.66 3 1 C2.67 3.31 2.34 5.62 2 8 C1.34 8 0.68 8 0 8 C0 5.36 0 2.72 0 0 Z " fill="#D0C62A" transform="translate(116,85)"/>
</svg>
